<?xml version="1.0" standalone="no"?>
<!DOCTYPE svg PUBLIC "-//W3C//DTD SVG 1.1//EN" "http://www.w3.org/Graphics/SVG/1.1/DTD/svg11.dtd" >
<svg xmlns="http://www.w3.org/2000/svg">
<metadata></metadata>
<defs>
<font id="pf_dindisplay_promedium" horiz-adv-x="1058" >
<font-face units-per-em="2048" ascent="1536" descent="-512" />
<missing-glyph horiz-adv-x="505" />
<glyph unicode="&#xfb01;" horiz-adv-x="1038" d="M49 831v185h121v164q0 70 22.5 122t60.5 85.5t89 51t111 17.5h159v-186h-129q-59 0 -79.5 -33t-20.5 -82v-139h535v-1016h-216v831h-319v-831h-213v831h-121zM686 1303q0 53 36 88.5t87 35.5q53 0 89 -35.5t36 -88.5t-36 -89t-89 -36q-51 0 -87 36t-36 89z" />
<glyph unicode="&#xfb02;" horiz-adv-x="1126" d="M55 831v185h119v158q0 90 29.5 152.5t80 102t117 58t140.5 18.5q53 0 145 -8t234 -45v-1155q0 -74 31.5 -92.5t115.5 -18.5l4 -188q-31 -6 -59.5 -8t-53.5 -2q-82 0 -131 19.5t-76.5 55t-36.5 86t-9 113.5v1032q-39 10 -75 15.5t-81 5.5q-76 0 -119 -37t-43 -115v-147 h217v-185h-217v-831h-213v831h-119z" />
<glyph unicode="&#xfb03;" horiz-adv-x="1568" d="M49 831v185h121v123q0 70 22.5 122t60.5 86.5t89 51t111 16.5h153v-184h-123q-59 0 -79.5 -34t-20.5 -83v-98h317v164q0 70 21.5 122t60.5 85.5t90.5 51t110.5 17.5h158v-186h-129q-57 0 -78 -33t-21 -82v-139h535v-1016h-217v831h-318v-831h-213v831h-317v-831h-213v831 h-121zM1214 1303q0 53 36 87.5t89 34.5q51 0 87 -34.5t36 -87.5t-35.5 -89t-87.5 -36q-53 0 -89 36t-36 89z" />
<glyph unicode="&#xfb04;" horiz-adv-x="1650" d="M49 831v185h121v149q0 70 22.5 122t60.5 86t89 51.5t111 17.5h161v-187h-131q-59 0 -79.5 -32.5t-20.5 -81.5v-125h315v155q0 90 29 154t79 103.5t117.5 58t145.5 18.5q53 0 146.5 -9t228.5 -46v-1153q0 -74 31.5 -92.5t115.5 -18.5l4 -188q-31 -6 -59.5 -8t-52.5 -2 q-82 0 -131 19.5t-77 55t-37 86t-9 113.5v1032q-37 10 -74 14.5t-80 4.5q-164 0 -164 -156v-141h217v-185h-217v-831h-213v831h-315v-831h-213v831h-121z" />
<glyph horiz-adv-x="0" />
<glyph horiz-adv-x="682" />
<glyph unicode=" "  horiz-adv-x="505" />
<glyph unicode="&#x09;" horiz-adv-x="505" />
<glyph unicode="&#xa0;" horiz-adv-x="505" />
<glyph unicode="!" horiz-adv-x="514" d="M117 133q0 53 38 95t99 42q66 0 105.5 -42t39.5 -95q0 -59 -37.5 -102t-105.5 -43q-63 0 -101 42t-38 103zM147 1425h220l-15 -1019h-190z" />
<glyph unicode="&#x22;" horiz-adv-x="667" d="M111 1016v409h176v-409h-176zM381 1016v409h174v-409h-174z" />
<glyph unicode="#" horiz-adv-x="1103" d="M49 428v162h201l35 252h-181v159h203l60 422h176l-56 -422h201l60 422h178l-60 -422h187v-159h-209l-33 -252h186v-162h-209l-59 -428h-182l59 428h-198l-58 -428h-186l61 428h-176zM430 590h199l37 252h-201z" />
<glyph unicode="$" d="M47 182l123 166q88 -70 179 -106.5t188 -36.5q129 0 191.5 55t62.5 141q0 61 -31 98.5t-78 61t-101.5 35.5t-101.5 22q-68 14 -136.5 40t-123.5 70t-89 111.5t-34 166.5q0 80 28 147.5t77 119.5t115.5 86t144.5 44v178h147q-2 -43 -2 -86v-86q96 -6 186.5 -36t184.5 -93 l-111 -182q-82 55 -160.5 80.5t-160.5 25.5q-45 0 -86 -12t-73 -38t-50.5 -63.5t-18.5 -86.5t27 -81t67 -53.5t87 -35t88 -23.5q68 -16 142.5 -38.5t137 -66.5t103.5 -117t41 -186q0 -86 -30 -156.5t-83 -121.5t-127 -82t-164 -39q0 -14 2 -24v-185h-147v209 q-115 8 -215.5 50t-198.5 128z" />
<glyph unicode="%" horiz-adv-x="1691" d="M102 793v387q0 57 25 101t67 74.5t95 47t108 16.5t107.5 -16.5t94.5 -47t66.5 -74.5t24.5 -101v-387q0 -57 -24.5 -101.5t-65.5 -75t-94 -46t-109 -15.5q-57 0 -110.5 15.5t-94 46t-65.5 74.5t-25 102zM274 813q0 -29 11.5 -49.5t30 -32.5t40 -18t41.5 -6t43 6t41.5 18 t29.5 32.5t11 49.5v342q0 31 -11 51.5t-29.5 33.5t-41 19.5t-43.5 6.5q-20 0 -41.5 -6.5t-40 -19.5t-30 -33.5t-11.5 -51.5v-342zM334 -35l870 1495h162l-872 -1495h-160zM999 229v387q0 57 26 101.5t67 75t94 47t108 16.5t107.5 -16.5t94.5 -47t66.5 -74.5t24.5 -102v-387 q0 -57 -24.5 -101t-65.5 -74.5t-94 -46t-109 -15.5q-57 0 -110.5 15.5t-94 46t-65.5 74.5t-25 101zM1171 250q0 -29 11.5 -49.5t30 -32.5t40 -18.5t41.5 -6.5t43 6.5t41.5 18.5t29.5 32.5t11 49.5v342q0 31 -11 51.5t-29.5 33.5t-41 19t-43.5 6q-20 0 -41.5 -6t-40 -19 t-30 -33.5t-11.5 -51.5v-342z" />
<glyph unicode="&#x26;" horiz-adv-x="1693" d="M104 1028q0 123 49.5 237.5t141.5 201.5t223 139.5t293 52.5q182 0 321.5 -61.5t234.5 -167t143.5 -245.5t48.5 -300q0 -186 -74 -352t-199 -293q72 -66 147.5 -118t161.5 -87l-84 -156q-45 18 -95 46t-99 60.5t-94 68.5t-82 73q-78 -63 -188.5 -103t-221.5 -40 q-92 0 -174 26.5t-142.5 78.5t-96 128t-35.5 174q0 72 24.5 134.5t66.5 115.5t100 99t126 85q-47 68 -69.5 127.5t-22.5 124.5q0 66 20.5 122t58.5 98t93 65.5t127 23.5q68 0 124 -22.5t98 -60t65.5 -90t23.5 -111.5t-19.5 -108.5t-53 -90.5t-79.5 -76.5t-100 -68.5 q66 -94 141.5 -195.5t159.5 -200.5q98 104 156.5 238.5t58.5 282.5q0 123 -36.5 232.5t-108.5 192.5t-177.5 131t-240.5 48q-123 0 -222 -36t-169 -97.5t-107.5 -143.5t-37.5 -172q0 -66 18 -134t66 -142l-150 -90q-61 90 -87 180t-26 176zM467 395q0 -123 71.5 -183 t176.5 -60q74 0 152.5 24.5t156.5 75.5q-43 47 -88 102.5t-87 111.5t-79 110.5t-65 99.5q-49 -27 -92.5 -56.5t-75 -64.5t-51 -75t-19.5 -85zM698 1085q0 -41 20.5 -81.5t53.5 -90.5q72 39 116 81t44 108q0 49 -36 82t-89 33q-57 0 -83 -43.5t-26 -88.5z" />
<glyph unicode="'" horiz-adv-x="530" d="M182 1016v409h174v-409h-174z" />
<glyph unicode="(" horiz-adv-x="649" d="M113 625q0 131 31.5 253.5t85 233.5t124 210t148.5 185l121 -75q-135 -178 -210 -388t-75 -409q0 -215 78 -426t207 -383l-115 -86q-80 86 -151.5 186.5t-126 213t-86 234.5t-31.5 251z" />
<glyph unicode=")" horiz-adv-x="649" d="M63 -174q129 172 206 383t77 426q0 199 -73.5 408.5t-209.5 388.5l119 75q80 -86 150.5 -185t124 -210t85 -233.5t31.5 -253.5q0 -129 -32.5 -251t-87 -234.5t-126 -213t-151.5 -186.5z" />
<glyph unicode="*" horiz-adv-x="808" d="M74 1122l47 158l227 -96l-22 246h170l-25 -246q18 8 50 20.5t64.5 26.5t63.5 27.5t49 21.5l47 -160l-233 -57l160 -184q-10 -8 -28.5 -22.5t-39 -30t-40 -29t-29.5 -21.5l-125 213l-129 -213q-10 6 -29 20.5t-40.5 30t-40.5 29.5t-28 23l162 184z" />
<glyph unicode="+" d="M53 522v166h389v385h172v-385h390v-166h-390v-389h-172v389h-389z" />
<glyph unicode="," horiz-adv-x="555" d="M125 -195q49 37 81 83t36 102q-45 6 -75 44t-30 91q0 55 41 96t103 41q41 0 70.5 -15.5t50 -41t29.5 -59t9 -68.5q0 -59 -18.5 -115.5t-51 -106t-75.5 -89t-94 -64.5z" />
<glyph unicode="-" horiz-adv-x="835" d="M102 444v193h629v-193h-629z" />
<glyph unicode="." horiz-adv-x="518" d="M123 133q0 53 38 95t99 42q66 0 104.5 -42t38.5 -95q0 -59 -37.5 -102t-103.5 -43q-63 0 -101 42t-38 103z" />
<glyph unicode="/" horiz-adv-x="684" d="M-12 -86l516 1571h170l-516 -1571h-170z" />
<glyph unicode="0" d="M92 358v693q0 92 40 161.5t102.5 116.5t140.5 71.5t155 24.5q78 0 156 -24.5t140.5 -71.5t101.5 -116.5t39 -161.5v-693q0 -90 -39 -159.5t-101.5 -115.5t-140.5 -69.5t-156 -23.5t-156.5 23.5t-141 69.5t-101.5 115.5t-39 159.5zM313 408q0 -59 20.5 -99.5t52.5 -66 t70 -36.5t74 -11q37 0 75 11t70 36.5t52.5 65.5t20.5 100v593q0 59 -20.5 100.5t-52.5 67t-70 37t-75 11.5t-74.5 -11.5t-69.5 -37t-52.5 -66.5t-20.5 -101v-593z" />
<glyph unicode="1" d="M207 1153q25 20 65.5 56t84.5 74t86 73t67 55h201v-1411h-217v1135l-168 -140z" />
<glyph unicode="2" d="M96 0v182q0 86 28 159t74 135.5t105 115.5t125 98q57 39 113.5 80t100.5 84t70.5 88t26.5 94q0 45 -20.5 79t-53 56.5t-75.5 34t-86 11.5q-78 0 -150.5 -29t-130.5 -76l-112 170q74 63 178 103t227 40q84 0 165 -20.5t143.5 -66.5t101.5 -119t39 -179q0 -66 -25 -125 t-64.5 -112t-89 -98.5t-98.5 -83.5q-49 -39 -109.5 -80t-114.5 -90.5t-93 -112t-47 -143.5h637v-195h-865z" />
<glyph unicode="3" d="M63 129q8 12 23.5 35.5t34 50.5t35 50.5t24.5 35.5q57 -47 135 -77.5t150 -30.5q115 0 179.5 56t64.5 159q0 98 -58.5 161.5t-150.5 63.5h-164v190h164q37 0 72.5 13.5t64.5 40t46 66.5t17 91t-19 86t-50 56.5t-71 31t-81 9.5q-72 0 -151.5 -31t-134.5 -80 q-8 12 -24.5 36.5t-35 51.5t-35 50.5t-24.5 35.5q72 63 182.5 103t237.5 40q80 0 156.5 -19.5t138 -64.5t98.5 -115.5t37 -172.5q0 -104 -49.5 -187.5t-141.5 -122.5q96 -41 146.5 -131t50.5 -190q0 -111 -39 -193t-101.5 -135t-144.5 -79.5t-168 -26.5q-127 0 -234.5 40 t-179.5 103z" />
<glyph unicode="4" d="M61 211v180q27 57 64 139t80 176.5t88 194.5t88 194.5t79 176.5t62 139h232l-449 -1005h359v413h221v-413h119v-195h-119v-211h-221v211h-603z" />
<glyph unicode="5" d="M111 133l120 176q66 -59 134.5 -85.5t142.5 -26.5q31 0 70.5 9t76.5 31.5t62.5 62.5t25.5 99v170q0 88 -43 130t-114 42q-31 0 -68 -11t-73.5 -28.5t-67.5 -36t-49 -32.5l-201 80v698h793v-201h-572v-340q70 45 140.5 69t125.5 24q82 0 146.5 -28t109.5 -77t69 -116.5 t24 -147.5v-223q0 -90 -37 -161t-99.5 -120t-143.5 -74.5t-169 -25.5q-129 0 -230.5 39t-172.5 104z" />
<glyph unicode="6" d="M100 367v675q0 92 36 164t97.5 121t141.5 73.5t168 24.5q129 0 228 -38.5t171 -104.5l-119 -178q-66 59 -133 86t-141 27q-35 0 -74 -11.5t-73.5 -37t-57 -65.5t-22.5 -97v-193q96 57 167.5 77.5t128.5 20.5q82 0 146.5 -27.5t109 -76.5t68 -117.5t23.5 -148.5v-168 q0 -92 -37 -164t-96.5 -121t-138.5 -73.5t-161 -24.5q-88 0 -166.5 24.5t-137 71.5t-93.5 117.5t-35 163.5zM322 408q0 -57 19 -97.5t49 -66t68 -36.5t74 -11q35 0 73 12t69 37.5t50 65.5t19 96v114q0 96 -46 137t-109 41q-61 0 -126 -25.5t-140 -72.5v-194z" />
<glyph unicode="7" d="M104 1004v407h859v-188l-506 -1223h-236l494 1212h-404v-208h-207z" />
<glyph unicode="8" d="M78 397q0 53 15.5 103.5t43 93.5t62 77t75.5 52q-78 35 -120.5 112.5t-42.5 182.5q0 102 37.5 178t99 127t137.5 75.5t152 24.5q78 0 154.5 -24.5t137 -75.5t97.5 -128t37 -179q0 -98 -43 -177t-119 -116q94 -41 142 -130t48 -185q0 -109 -41 -189t-106.5 -131 t-147.5 -75.5t-164 -24.5q-88 0 -169.5 23.5t-145 73.5t-101.5 128t-38 184zM309 401q0 -98 62.5 -152t163.5 -54q98 0 161.5 54t63.5 157q0 45 -18.5 82.5t-49 65.5t-71.5 42t-86 14t-86 -14t-72 -42t-49.5 -65.5t-18.5 -87.5zM328 1016q0 -49 17 -87t47 -63.5t67 -39 t78 -13.5q39 0 76.5 14.5t66.5 40t46 63.5t17 85q0 96 -62.5 147t-143.5 51q-39 0 -77 -13t-66.5 -38.5t-47 -62.5t-18.5 -84z" />
<glyph unicode="9" d="M90 887v149q0 92 36 165t95.5 123t137 75.5t163.5 25.5q88 0 166 -25.5t136.5 -74.5t93 -122t34.5 -165v-667q0 -92 -35.5 -163t-96 -120t-140.5 -73.5t-168 -24.5q-131 0 -230.5 39t-170.5 104l120 176q125 -111 273 -110q33 0 72.5 11t73.5 36.5t56.5 65.5t22.5 98v200 q-96 -53 -165.5 -74.5t-129.5 -21.5q-160 0 -252 100.5t-92 272.5zM309 903q0 -96 46 -136t112 -40q59 0 123.5 25.5t138.5 70.5v185q0 57 -18.5 97t-48 65.5t-66.5 37t-74 11.5t-74.5 -12.5t-68.5 -38t-50.5 -65.5t-19.5 -95v-105z" />
<glyph unicode=":" horiz-adv-x="577" d="M145 133q0 53 38 95t100 42q66 0 104.5 -42t38.5 -95q0 -59 -37.5 -102t-103.5 -43q-63 0 -101.5 42t-38.5 103zM145 733q0 55 38 97t100 42q66 0 104.5 -42t38.5 -97q0 -59 -37.5 -101t-103.5 -42q-63 0 -101.5 41t-38.5 102z" />
<glyph unicode=";" horiz-adv-x="555" d="M113 -195q49 37 79.5 83t36.5 102q-47 6 -75.5 44t-28.5 91q0 55 41 96t102 41q41 0 71 -15.5t49.5 -41t28.5 -59t9 -68.5q0 -59 -18.5 -115.5t-50 -106t-75.5 -89t-94 -64.5zM137 733q0 55 38 97t101 42q66 0 105 -42t39 -97q0 -59 -38 -101t-106 -42q-63 0 -101 41 t-38 102z" />
<glyph unicode="&#x3c;" d="M76 526v160l903 428v-186l-684 -322l684 -321v-187z" />
<glyph unicode="=" d="M51 313v166h953v-166h-953zM51 731v168h953v-168h-953z" />
<glyph unicode="&#x3e;" d="M76 98v187l686 321l-686 322v186l903 -428v-160z" />
<glyph unicode="?" horiz-adv-x="970" d="M59 1300q92 72 193.5 103t214.5 31q88 0 163 -28t130 -76t86 -114.5t31 -144.5q0 -94 -44.5 -170t-96.5 -144.5t-96 -136t-44 -145.5v-74h-219v70q0 94 39 166t85 136.5t85 129t39 141.5q0 72 -51.5 124.5t-141.5 52.5q-72 0 -140.5 -26t-123.5 -73zM350 131q0 53 38 95 t99 42q66 0 106 -42t40 -95q0 -59 -38 -100t-106 -41q-63 0 -101 40t-38 101z" />
<glyph unicode="@" horiz-adv-x="1738" d="M98 725q0 164 63.5 304t175.5 242.5t262.5 160t322.5 57.5q180 0 319 -56.5t233.5 -154.5t143.5 -228.5t49 -277.5q0 -106 -31.5 -191t-84 -143.5t-120 -90.5t-139.5 -32q-63 0 -131.5 23.5t-101.5 83.5q-66 -39 -134.5 -64.5t-136.5 -25.5q-123 0 -188 67.5t-65 175.5 q0 68 30.5 114t75.5 75t96 41t92 12h203v37q0 74 -46 104.5t-120 30.5q-41 0 -92 -12t-110 -59q-23 31 -44.5 61.5t-44.5 62.5q82 66 156 86.5t143 20.5q154 0 243 -75t89 -226v-297q0 -43 29 -60.5t70 -17.5q31 0 66.5 17.5t65 53.5t49 92t19.5 136q0 119 -39 221.5 t-114.5 179t-184 120.5t-245.5 44q-141 0 -262 -47t-210.5 -130t-139.5 -194.5t-50 -238.5q0 -129 45 -239.5t127 -192.5t193.5 -128t246.5 -46q59 0 118 10t145 43l51 -145q-88 -37 -174 -47.5t-146 -10.5q-170 0 -311 56.5t-242.5 157t-158 238.5t-56.5 302zM713 582 q0 -43 30.5 -68t83.5 -25q59 0 113.5 25t93.5 47v119h-172q-20 0 -45.5 -2t-49.5 -12.5t-39 -30t-15 -53.5z" />
<glyph unicode="A" horiz-adv-x="1263" d="M20 0l494 1411h238l493 -1411h-254l-96 305h-526l-101 -305h-248zM436 508h391l-84 264l-108 358h-8l-105 -344z" />
<glyph unicode="B" horiz-adv-x="1245" d="M119 0v1411h610q100 0 177 -30.5t127 -83t76 -120t26 -143.5q0 -82 -41 -162.5t-133 -132.5q102 -51 149 -142t47 -181q0 -80 -25.5 -155t-76.5 -133t-127 -93t-174 -35h-635zM354 209h340q111 0 167.5 56.5t56.5 154.5t-67 155.5t-159 57.5h-338v-424zM354 838h332 q92 0 151.5 47t59.5 133q0 94 -58.5 138t-162.5 44h-322v-362z" />
<glyph unicode="C" horiz-adv-x="1114" d="M115 444v523q0 111 44 195.5t116.5 143t167 89t194.5 30.5q117 0 224.5 -32.5t189.5 -100.5l-115 -182q-59 51 -139 75.5t-156 24.5q-53 0 -105.5 -16t-93.5 -51t-66.5 -90.5t-25.5 -132.5v-428q0 -78 25.5 -133.5t67.5 -90.5t93.5 -51t102.5 -16q76 0 153.5 21.5 t147.5 76.5l111 -180q-72 -59 -180.5 -96t-231.5 -37q-102 0 -196.5 29.5t-167 88t-116.5 144.5t-44 196z" />
<glyph unicode="D" horiz-adv-x="1251" d="M121 0v1411h532q98 0 187.5 -29.5t157 -88t107.5 -143.5t40 -196v-497q0 -109 -40 -193t-108.5 -143.5t-157.5 -90t-188 -30.5h-530zM354 207h254q51 0 104.5 15.5t96.5 49t70.5 89t27.5 135.5v415q0 80 -25.5 135.5t-68.5 89t-96 49t-109 15.5h-254v-993z" />
<glyph unicode="E" horiz-adv-x="1161" d="M125 0v1411h956v-211h-723v-387h619v-211h-619v-393h723v-209h-956z" />
<glyph unicode="F" horiz-adv-x="1105" d="M125 0v1411h956v-211h-723v-391h619v-211h-619v-598h-233z" />
<glyph unicode="G" horiz-adv-x="1214" d="M115 444v521q0 111 44 195.5t118.5 144t172 90t203.5 30.5q119 0 227.5 -32.5t188.5 -100.5l-115 -182q-59 51 -141 75.5t-158 24.5q-57 0 -111.5 -16t-97.5 -51t-69.5 -90.5t-26.5 -132.5v-428q0 -78 24.5 -133.5t66.5 -90.5t95.5 -51t108.5 -16q43 0 101.5 13t119.5 60 v283h-215v205h449v-584q-92 -106 -216 -149t-239 -43q-100 0 -195.5 29.5t-170 88t-119.5 144.5t-45 196z" />
<glyph unicode="H" horiz-adv-x="1292" d="M115 0v1411h233v-590h592v590h238v-1411h-238v610h-592v-610h-233z" />
<glyph unicode="I" horiz-adv-x="561" d="M164 0v1411h233v-1411h-233z" />
<glyph unicode="J" horiz-adv-x="1079" d="M20 104l109 185q72 -49 138.5 -68.5t129.5 -19.5t116.5 16t92.5 51t60.5 92.5t21.5 141.5v909h236v-962q0 -111 -40 -197t-108.5 -145.5t-158 -90t-187.5 -30.5q-53 0 -109.5 7t-109.5 22.5t-102.5 38t-88.5 50.5z" />
<glyph unicode="K" horiz-adv-x="1247" d="M117 0v1411h235v-678h8l226 281l329 397h281l-463 -563l502 -848h-274q-96 166 -191.5 330t-191.5 329q-57 -68 -113.5 -134t-112.5 -134v-391h-235z" />
<glyph unicode="L" horiz-adv-x="1105" d="M131 0v1411h231v-1202h728v-209h-959z" />
<glyph unicode="M" horiz-adv-x="1562" d="M121 0v1411h219l268 -537l174 -362h13l172 367l262 532h215v-1411h-234v860h-8l-131 -266l-199 -391h-172l-192 368l-146 289h-8v-860h-233z" />
<glyph unicode="N" horiz-adv-x="1351" d="M121 0v1411h217l420 -625l227 -350h12v975h234v-1411h-219l-426 635l-217 334h-15v-969h-233z" />
<glyph unicode="O" horiz-adv-x="1280" d="M109 457v501q0 111 42 197t113.5 146.5t167.5 92t207 31.5q109 0 206 -32.5t169.5 -93t114.5 -147.5t42 -198v-497q0 -111 -40.5 -199t-113.5 -148.5t-170 -92t-208 -31.5q-113 0 -210 31.5t-168 92t-111.5 148.5t-40.5 199zM344 492q0 -78 24.5 -133.5t65.5 -90.5 t94.5 -51t110.5 -16t111.5 16t95.5 51t65.5 90.5t24.5 133.5v428q0 76 -24.5 131t-65.5 91t-95.5 52t-111.5 16q-59 0 -112.5 -16t-93.5 -52t-64.5 -91.5t-24.5 -130.5v-428z" />
<glyph unicode="P" horiz-adv-x="1157" d="M115 0v1411h608q102 0 178 -39t125 -100.5t73.5 -138t24.5 -152.5t-27.5 -152.5t-79.5 -139t-127 -101.5t-171 -39h-371v-549h-233zM348 762h324q102 0 162.5 60.5t60.5 158.5t-60.5 158.5t-162.5 60.5h-324v-438z" />
<glyph unicode="Q" horiz-adv-x="1300" d="M115 459v491q0 111 42 199t113.5 149.5t168 94t206.5 32.5q109 0 206 -32.5t170 -94t115 -148.5t42 -198v-493q0 -98 -33 -178t-89.5 -139.5t-135 -96.5t-170.5 -49v-33q0 -43 7 -71.5t25.5 -44t49 -21.5t79.5 -6h31v-185q-43 -6 -82 -6q-150 0 -237.5 70t-87.5 207v90 q-92 12 -169 49t-133.5 96.5t-87 139t-30.5 178.5zM350 522q0 -70 17 -131q27 -102 105.5 -146t172.5 -44q57 0 111.5 15t95.5 50t65.5 90.5t24.5 132.5v396q0 76 -18 131q-12 51 -40 88t-65 59.5t-82 33.5t-92 11q-59 0 -112.5 -16t-93.5 -51t-64.5 -90.5t-24.5 -132.5 v-396z" />
<glyph unicode="R" horiz-adv-x="1193" d="M117 0v1411h608q106 0 182 -39t125 -101.5t72.5 -139t23.5 -152.5q0 -57 -16 -115.5t-47 -111t-75 -94.5t-101 -68l258 -590h-254l-231 549h-310v-549h-235zM352 762h322q104 0 164.5 59.5t60.5 157.5t-60.5 158.5t-164.5 60.5h-322v-436z" />
<glyph unicode="S" horiz-adv-x="1181" d="M59 172l131 170q92 -68 195.5 -105.5t208.5 -37.5q139 0 207.5 56t68.5 142q0 59 -27.5 96t-74.5 62t-107.5 39t-125.5 31q-82 18 -159 46.5t-135.5 75t-94 113t-35.5 162.5q0 90 32.5 166t94 131t147.5 87t193 32q127 0 250.5 -26t236.5 -97l-104 -193q-94 57 -187.5 80 t-183.5 23q-49 0 -93 -12.5t-78 -37t-54.5 -62.5t-20.5 -89t26.5 -86t70.5 -58.5t100.5 -39t117.5 -27.5q100 -23 184.5 -53.5t145 -78.5t94 -116t33.5 -166t-39 -175t-107.5 -129t-164.5 -79.5t-209 -27.5q-150 0 -282 42t-255 142z" />
<glyph unicode="T" horiz-adv-x="1073" d="M29 1198v213h1015v-213h-389v-1198h-235v1198h-391z" />
<glyph unicode="U" horiz-adv-x="1284" d="M113 444v967h233v-924q0 -78 24.5 -132t66.5 -89t95.5 -51t110.5 -16q55 0 109.5 16t95.5 51t66.5 89.5t25.5 131.5v924h236v-965q0 -111 -44.5 -196.5t-118 -144t-169.5 -89t-201 -30.5q-106 0 -202.5 29.5t-169 88t-115.5 144.5t-43 196z" />
<glyph unicode="V" horiz-adv-x="1196" d="M20 1411h254l181 -586l139 -473h12l144 492l174 567h250l-453 -1411h-246z" />
<glyph unicode="W" horiz-adv-x="1812" d="M20 1411h252l142 -604l102 -451h12l111 455l152 600h229l158 -625l106 -430h10l99 435l145 620h252l-369 -1411h-258l-149 586l-103 418h-12l-104 -422l-148 -582h-260z" />
<glyph unicode="X" horiz-adv-x="1171" d="M16 0l443 723l-416 688h268l275 -493l276 493h266l-413 -688l442 -723h-266l-305 528l-303 -528h-267z" />
<glyph unicode="Y" horiz-adv-x="1138" d="M23 1411h253l154 -330l133 -299h15l135 308l151 321h250l-426 -864v-547h-235v547z" />
<glyph unicode="Z" horiz-adv-x="1087" d="M72 0v203l665 997h-639v211h922v-197l-676 -1005h674v-209h-946z" />
<glyph unicode="[" horiz-adv-x="569" d="M145 -209v1639h387v-148h-192v-1343h192v-148h-387z" />
<glyph unicode="\" horiz-adv-x="684" d="M-12 1485h172l514 -1571h-170z" />
<glyph unicode="]" horiz-adv-x="569" d="M49 -61h191v1343h-191v148h385v-1639h-385v148z" />
<glyph unicode="^" d="M49 608l408 815h159l408 -813h-186l-301 609l-304 -611h-184z" />
<glyph unicode="_" horiz-adv-x="1024" d="M0 -141h1024v-144h-1024v144z" />
<glyph unicode="`" horiz-adv-x="1021" d="M342 1481l201 65l162 -375l-127 -53z" />
<glyph unicode="a" horiz-adv-x="1044" d="M80 299q0 84 37 141.5t92 93t119.5 52t120.5 16.5h280v62q0 90 -51 128.5t-158 38.5q-51 0 -126 -15t-150 -77l-101 162q102 78 206 101.5t192 23.5q209 0 307 -92t98 -281v-653h-196l-19 88l-6 4q-109 -61 -183.5 -80.5t-138.5 -19.5q-152 0 -237.5 82t-85.5 225z M309 307q0 -57 41 -89t109 -32q37 0 73.5 9.5t72.5 22.5t68 29.5t56 31.5v155h-244q-29 0 -59.5 -4t-56 -17.5t-43 -38t-17.5 -67.5z" />
<glyph unicode="b" horiz-adv-x="1050" d="M96 0v1466h217v-546q113 63 186.5 84.5t127.5 21.5q170 0 250.5 -97.5t80.5 -266.5v-306q0 -180 -95 -273t-249 -93q-53 0 -126.5 20.5t-174.5 79.5l-20 -90h-197zM313 287q27 -18 64 -34.5t73.5 -30t72.5 -20.5t63 -7q66 0 109.5 43t43.5 141v254q0 104 -43 144t-110 40 q-57 0 -129 -32.5t-144 -77.5v-420z" />
<glyph unicode="c" horiz-adv-x="903" d="M94 352v301q0 90 35 160t92.5 117t131 71.5t151.5 24.5q45 0 92 -5t93 -18.5t90 -39t85 -68.5l-127 -162q-70 63 -124 77.5t-95 14.5q-35 0 -71.5 -11t-66.5 -35.5t-49.5 -64.5t-19.5 -98v-217q0 -57 17.5 -97t46 -64.5t65.5 -36t76 -11.5q43 0 104.5 19.5t110.5 66.5 l133 -149q-82 -84 -174 -110.5t-184 -26.5q-86 0 -162 24.5t-131 71.5t-87 113.5t-32 152.5z" />
<glyph unicode="d" horiz-adv-x="1050" d="M92 356v306q0 170 97.5 267t256.5 97q53 0 128 -11t161 -46v497h217v-1466h-196l-21 100q-104 -63 -177 -86.5t-126 -23.5q-158 0 -249 89t-91 277zM309 373q0 -102 44 -140t112 -38q27 0 60.5 8t70.5 22.5t73 32.5t66 39v465q-72 29 -134 44t-120 15q-72 0 -122 -43 t-50 -145v-260z" />
<glyph unicode="e" horiz-adv-x="1013" d="M94 360v267q0 92 32 165.5t89 125t133 79t166 27.5q92 0 170 -26.5t134 -77t87 -122t31 -163.5v-199h-625v-51q0 -53 18.5 -91t48.5 -61.5t69.5 -35t82.5 -11.5q47 0 114 16.5t132 76.5q33 -39 64.5 -75t62.5 -75q-86 -84 -181 -111.5t-192 -27.5q-88 0 -166.5 22.5 t-139 68.5t-95.5 115.5t-35 163.5zM313 592h404v31q0 106 -59.5 154t-141.5 48t-142.5 -50t-60.5 -150v-33z" />
<glyph unicode="f" horiz-adv-x="634" d="M49 829v185h121v176q0 70 22.5 122t60.5 87t89 51t111 16h180v-186h-150q-59 0 -79.5 -33t-20.5 -82v-151h250v-185h-250v-829h-213v829h-121z" />
<glyph unicode="g" horiz-adv-x="1046" d="M86 358v299q0 176 93 272.5t247 96.5q55 0 129 -22.5t174 -85.5l21 96h198v-1073q0 -90 -40 -159t-104.5 -115t-144 -68.5t-161.5 -22.5q-92 0 -195.5 32t-189.5 118l137 149q25 -25 56.5 -43t66.5 -30.5t67.5 -17.5t57.5 -5q45 0 87 11t73.5 35.5t51 63.5t19.5 97v108 q-96 -59 -175 -78.5t-132 -19.5q-160 0 -248 96t-88 266zM305 387q0 -102 43 -144q41 -40 105 -40h6q57 0 130 26.5t140 69.5v412q-66 47 -140.5 76.5t-129.5 29.5q-68 0 -111 -41t-43 -143v-246z" />
<glyph unicode="h" horiz-adv-x="1050" d="M98 0v1466h217v-555q117 76 194 95.5t132 19.5q168 0 246 -97.5t78 -266.5v-662h-220v633q0 51 -12 87t-33.5 57.5t-50 30.5t-61.5 9q-55 0 -125 -26.5t-148 -75.5v-715h-217z" />
<glyph unicode="i" horiz-adv-x="520" d="M135 1305q0 53 36 89t87 36q53 0 89 -36t36 -89t-36 -89t-89 -36q-51 0 -87 36t-36 89zM152 0v1014h217v-1014h-217z" />
<glyph unicode="j" horiz-adv-x="526" d="M-31 -223h74q76 0 101.5 34.5t25.5 114.5v1088h217v-1120q0 -160 -84 -235t-225 -75h-109v193zM156 1307q0 51 34.5 87t88.5 36q53 0 88.5 -36t35.5 -87q0 -53 -35.5 -89t-88.5 -36t-88 36t-35 89z" />
<glyph unicode="k" horiz-adv-x="1021" d="M96 0v1466h219v-776h117q61 0 105.5 24.5t80.5 98.5l105 205h244l-123 -256q-29 -59 -61.5 -100t-94.5 -64q43 -14 71.5 -37.5t47 -52.5t31 -61.5t22.5 -65.5l127 -381h-242l-104 328q-29 90 -72 122.5t-123 32.5h-131v-483h-219z" />
<glyph unicode="l" horiz-adv-x="575" d="M154 262v1204h217v-1169q0 -74 30.5 -92.5t114.5 -18.5l4 -188q-31 -6 -59.5 -8t-52.5 -2q-82 0 -131.5 19.5t-77 55t-36.5 86t-9 113.5z" />
<glyph unicode="m" horiz-adv-x="1585" d="M90 0v1014h199l18 -105q106 76 172 96.5t119 20.5q94 0 158.5 -39t99.5 -108q63 49 111.5 77.5t87.5 44t69.5 20.5t57.5 5q156 0 234.5 -91t78.5 -261v-674h-217v643q0 92 -37 132t-108 40q-49 0 -104.5 -26.5t-129.5 -83.5q2 -23 3 -41.5t1 -40.5v-623h-219v647 q0 94 -40 131t-95 37t-108.5 -21.5t-131.5 -74.5v-719h-219z" />
<glyph unicode="n" horiz-adv-x="1050" d="M94 0v1014h197l20 -101q61 37 111.5 59.5t90.5 35t71.5 15.5t58.5 3q160 0 239 -96t79 -266v-664h-220v633q0 104 -45 144t-112 40q-55 0 -125 -26.5t-148 -75.5v-715h-217z" />
<glyph unicode="o" horiz-adv-x="1048" d="M92 358v295q0 90 36 160t95.5 117t137 71.5t163.5 24.5q92 0 170 -24.5t136.5 -72.5t91 -118t32.5 -160v-293q0 -90 -35.5 -159.5t-96 -115.5t-138.5 -69.5t-162 -23.5q-86 0 -164.5 23.5t-137 69.5t-93.5 115.5t-35 159.5zM309 399q0 -115 63.5 -162t151.5 -47 q37 0 76 11.5t69.5 36t50 64.5t19.5 97v215q0 57 -19.5 97.5t-50 65t-69.5 35.5t-76 11t-75.5 -11t-69.5 -35.5t-50.5 -64.5t-19.5 -98v-215z" />
<glyph unicode="p" horiz-adv-x="1052" d="M102 -406v1420h197l20 -101q104 63 178 87t128 24q158 0 249 -89t91 -278v-305q0 -170 -93.5 -267t-263.5 -97q-53 0 -126.5 10t-162.5 51v-455h-217zM319 252q82 -35 140.5 -47t113.5 -12q35 0 67 8t55.5 29.5t36.5 56.5t13 86v266q0 102 -44 140t-111 38 q-27 0 -60.5 -8t-70.5 -22.5t-73 -33t-67 -38.5v-463z" />
<glyph unicode="q" horiz-adv-x="1042" d="M88 354v305q0 180 95.5 273.5t248.5 93.5q53 0 126 -21.5t177 -82.5l21 92h194v-1422h-217v494q-106 -59 -180 -77.5t-127 -18.5q-160 0 -249 97t-89 267zM307 383q0 -102 44 -143q42 -39 106 -39h6q55 0 125.5 25.5t144.5 72.5v428q-66 39 -142.5 67.5t-127.5 28.5 q-68 0 -112 -43t-44 -143v-254z" />
<glyph unicode="r" horiz-adv-x="729" d="M125 0v1016h197l18 -150h2q27 27 69 55.5t92 52t104.5 39t107.5 15.5v-227q-135 -12 -224.5 -45t-148.5 -70v-686h-217z" />
<glyph unicode="s" horiz-adv-x="942" d="M45 129l119 158q76 -63 153.5 -87t163.5 -24q72 0 128.5 31t56.5 94q0 53 -37 79t-109 38q-74 12 -149.5 27.5t-137 46t-100.5 83t-39 138.5q0 74 31 132t83 98t119.5 61.5t143.5 21.5q117 0 210 -23.5t183 -89.5l-106 -161q-74 47 -143.5 64.5t-141.5 17.5 q-78 0 -122 -35t-44 -82t43 -68.5t107.5 -35t140.5 -28t140.5 -45t107.5 -87t43 -152.5q0 -74 -32 -132t-88 -98t-132 -61.5t-162 -21.5q-111 0 -215 26.5t-215 114.5z" />
<glyph unicode="t" horiz-adv-x="757" d="M55 829v185h140l43 243h168v-243h264v-185h-264v-458q0 -96 26.5 -138.5t114.5 -42.5q27 0 69.5 5.5t88.5 19.5l43 -190q-61 -23 -130 -29t-110 -6q-90 0 -150.5 23.5t-97.5 67.5t-53.5 108.5t-16.5 146.5v493h-135z" />
<glyph unicode="u" horiz-adv-x="1056" d="M90 360v654h219v-635q0 -102 47 -143t113 -41q113 0 270 110v709h219v-1014h-198l-21 98q-119 -72 -191.5 -91t-123.5 -19q-166 0 -250 101t-84 271z" />
<glyph unicode="v" horiz-adv-x="983" d="M16 1014h242l119 -365l115 -364h10q2 8 10 35.5t19.5 65.5t24.5 79t24.5 79t19.5 65.5t12 35.5l117 369h238l-363 -1014h-223z" />
<glyph unicode="w" horiz-adv-x="1462" d="M31 1016h227l88 -348l84 -355h8l117 355l82 250h199l92 -279l102 -330h10l84 361l86 346h222l-277 -1016h-215l-100 305l-103 320h-8l-102 -328l-97 -297h-213z" />
<glyph unicode="x" horiz-adv-x="962" d="M2 0l358 518l-340 498h261l196 -330l201 330h260l-344 -494l358 -522h-262l-213 350l-217 -350h-258z" />
<glyph unicode="y" horiz-adv-x="980" d="M20 1016h230l108 -416l101 -371h6l129 373l137 414h230l-519 -1426h-225l154 430l-74 60z" />
<glyph unicode="z" horiz-adv-x="946" d="M80 0v174l520 653h-491v187h759v-174l-518 -650h518v-190h-788z" />
<glyph unicode="{" horiz-adv-x="569" d="M29 539v141q80 8 118.5 74.5t38.5 165.5v272q0 106 59.5 169.5t147.5 63.5h160v-143h-84q-27 0 -44 -14.5t-27.5 -38t-14.5 -51t-4 -54.5v-252q0 -59 -16.5 -104t-41 -77t-51 -51t-47.5 -28v-4q23 -8 50.5 -27.5t51 -51t39 -75.5t15.5 -102v-258q0 -27 3 -54.5t12 -51 t27.5 -37.5t47.5 -14h84v-140h-160q-102 0 -154.5 67.5t-52.5 209.5v209q0 115 -35.5 182t-121.5 74z" />
<glyph unicode="|" horiz-adv-x="454" d="M141 -377v1854h172v-1854h-172z" />
<glyph unicode="}" horiz-adv-x="569" d="M23 -63h83q29 0 46.5 14t27.5 37.5t13.5 51.5t3.5 54v258q0 57 15 101.5t38.5 76t50.5 51t51 27.5v4q-23 8 -49.5 27.5t-50 51.5t-39.5 77t-16 104v252q0 27 -2 54.5t-11.5 51t-28 38t-49.5 14.5h-83v137h155q100 0 155.5 -63.5t55.5 -163.5v-272q0 -100 39 -166t119 -74 v-141q-88 -6 -123 -74t-35 -182v-209q0 -125 -51 -201t-156 -76h-159v140z" />
<glyph unicode="~" d="M37 539q53 92 126 139t173 47q47 0 98 -20.5t101.5 -44t98.5 -44t91 -20.5q41 0 78 25.5t86 99.5l135 -96q-59 -104 -131 -155.5t-168 -51.5q-47 0 -96 20.5t-99.5 44t-100.5 44t-97 20.5q-51 0 -88 -25.5t-80 -85.5z" />
<glyph unicode="&#xa1;" horiz-adv-x="514" d="M117 883q0 59 37.5 101t105.5 42q63 0 101 -41t38 -102q0 -53 -37.5 -95.5t-99.5 -42.5q-66 0 -105.5 42t-39.5 96zM150 -412l14 1020h190l15 -1020h-219z" />
<glyph unicode="&#xa2;" horiz-adv-x="903" d="M94 352v301q0 82 30 148.5t80 114t116.5 75t138.5 33.5v229h100v-229q78 -4 158 -30.5t147 -98.5l-127 -162q-53 49 -98 67.5t-80 22.5v-630q41 6 87 26.5t85 56.5l133 -149q-72 -72 -149.5 -100.5t-155.5 -34.5v-246h-100v246q-78 6 -144.5 32.5t-115.5 72.5t-77 110.5 t-28 144.5zM311 399q0 -92 44 -140t104 -62v620q-57 -16 -102.5 -63t-45.5 -138v-217z" />
<glyph unicode="&#xa3;" d="M96 578v163h140q-10 39 -24.5 77t-27 76t-21.5 76t-9 77q0 74 26.5 142t77.5 121.5t128 85t177 31.5q131 0 235.5 -42t190.5 -156l-162 -133q-59 80 -124.5 107.5t-131.5 27.5q-29 0 -59.5 -11.5t-58 -34t-45 -58t-17.5 -85.5q0 -37 9.5 -72.5t23.5 -72.5t27.5 -75 t23.5 -81h313v-163h-303q-4 -100 -27.5 -198.5t-82.5 -191.5h612v-188h-887v162q70 92 115 192.5t51 223.5h-170z" />
<glyph unicode="&#xa4;" horiz-adv-x="1138" d="M72 283l141 137q-74 117 -74 235q0 59 19.5 117.5t54.5 116.5l-141 139l116 117l140 -139q117 74 237 73q66 0 123 -18.5t115 -52.5l24.5 24.5t43 44t43 44t26.5 24.5l117 -119l-139 -137q35 -57 54 -115.5t19 -118.5q0 -63 -18.5 -119.5t-54.5 -115.5q31 -29 69.5 -66 t69.5 -69l-117 -119l-137 139q-55 -37 -113.5 -56.5t-124.5 -19.5q-125 0 -237 76l-140 -139q-6 6 -22 23.5t-35.5 36t-36 34.5t-22.5 23zM309 655q0 -53 19.5 -99t54.5 -81t81 -55.5t99 -20.5t100.5 20.5t82 55.5t54 81t19.5 99t-19.5 100.5t-54 82t-82 54t-100.5 19.5 t-99 -20.5t-81 -55t-54.5 -81t-19.5 -99.5z" />
<glyph unicode="&#xa5;" d="M33 1411h252l239 -625h15l237 625h252l-287 -651h220v-148h-285l-27 -65v-90h312v-142h-312v-315h-235v315h-312v142h312v90l-31 65h-279v148h215z" />
<glyph unicode="&#xa6;" horiz-adv-x="454" d="M141 -377v862h172v-862h-172zM141 608v869h172v-869h-172z" />
<glyph unicode="&#xa7;" horiz-adv-x="911" d="M88 717q0 57 25.5 121.5t93.5 124.5q-29 33 -45.5 72.5t-16.5 90.5q0 76 29 135.5t78 98.5t113.5 59.5t136.5 20.5t148.5 -18.5t133.5 -55.5l-84 -156q-49 31 -97 47.5t-105 16.5q-27 0 -54.5 -8.5t-49 -23.5t-35 -38.5t-13.5 -54.5q0 -80 90 -135q72 -43 142.5 -77 t127 -74t91 -94t34.5 -140q0 -72 -27.5 -131.5t-84.5 -118.5q25 -29 44 -73t19 -97q0 -82 -30.5 -142.5t-80.5 -100.5t-114.5 -59.5t-134.5 -19.5q-80 0 -157 20.5t-136 63.5l72 150q47 -33 101 -51.5t120 -18.5q61 0 109.5 33t48.5 100q0 59 -40 104.5t-151 94.5 q-59 27 -113.5 56.5t-96.5 68.5t-66.5 90t-24.5 119zM281 737q0 -43 19 -72.5t51 -51t71 -39t80 -39.5l67 -37q63 41 64 106q0 47 -27.5 84t-70.5 66.5t-94.5 54t-98.5 47.5q-61 -49 -61 -119z" />
<glyph unicode="&#xa8;" horiz-adv-x="1003" d="M176 1294q0 49 35 84t82 35q51 0 86 -35t35 -84t-35 -83.5t-86 -34.5q-47 0 -82 34.5t-35 83.5zM578 1294q0 49 34.5 84t83.5 35q51 0 86 -35t35 -84t-34.5 -83.5t-86.5 -34.5q-49 0 -83.5 34.5t-34.5 83.5z" />
<glyph unicode="&#xa9;" horiz-adv-x="1656" d="M115 698q0 156 55 289t151.5 229.5t227.5 151.5t282 55q154 0 285 -54t227.5 -150.5t151.5 -229.5t55 -291q0 -156 -55 -287.5t-151.5 -228t-227.5 -151t-285 -54.5t-285.5 54.5t-227 151t-149.5 228.5t-54 287zM260 698q0 -125 44 -231.5t121 -185t181.5 -122.5 t224.5 -44q123 0 227.5 44t181.5 122.5t120 185t43 231.5q0 127 -43 234.5t-120 186.5t-181.5 123t-227.5 44q-121 0 -225 -45t-181 -123t-121 -186.5t-44 -233.5zM487 543v286q0 74 30 132.5t79 98.5t112.5 61.5t131.5 21.5q80 0 153.5 -21.5t126.5 -68.5l-78 -121 q-41 35 -94 52t-106 17q-35 0 -71 -11t-63.5 -34.5t-45 -61.5t-17.5 -91v-230q0 -53 17.5 -91t46 -61.5t63.5 -34.5t70 -11q51 0 104 15.5t101 51.5l75 -118q-49 -41 -122.5 -67t-157.5 -26q-68 0 -132.5 20.5t-113.5 60.5t-79 98.5t-30 132.5z" />
<glyph unicode="&#xaa;" horiz-adv-x="720" d="M47 766q0 57 21.5 97t55.5 64.5t74 35t76 10.5h211v28q0 51 -35.5 74t-97.5 23q-35 0 -79 -10.5t-101 -51.5l-80 123q74 51 142.5 67.5t127.5 16.5q299 0 300 -250v-430h-160l-13 68q-41 -35 -96 -54.5t-112 -19.5q-111 0 -172.5 55.5t-61.5 153.5zM225 772 q0 -29 23.5 -49.5t64.5 -20.5q47 0 93.5 17.5t80.5 40.5v84h-153q-18 0 -36.5 -3t-35 -10.5t-27 -21.5t-10.5 -37z" />
<glyph unicode="&#xab;" horiz-adv-x="1030" d="M92 469l273 401h200l-266 -401l266 -399h-200zM481 469l273 401h202l-264 -401l264 -399h-202z" />
<glyph unicode="&#xac;" d="M51 520v166h950v-555h-172v389h-778z" />
<glyph unicode="&#xad;" horiz-adv-x="835" d="M102 444v193h629v-193h-629z" />
<glyph unicode="&#xae;" horiz-adv-x="1124" d="M127 1001q0 94 34 174t93 138.5t138 91.5t169 33q92 0 172 -33t138.5 -91.5t92 -138t33.5 -174.5q0 -92 -33.5 -170.5t-93 -135t-138.5 -89.5t-171 -33t-172 33t-138 89.5t-91 135t-33 170.5zM219 1001q0 -74 25.5 -136t71.5 -108t108.5 -73t136.5 -27t136.5 27t108.5 73 t72.5 108.5t26.5 135.5q0 76 -26.5 139.5t-72.5 109.5t-108.5 73t-136.5 27t-136.5 -27t-108.5 -73t-71.5 -109.5t-25.5 -139.5zM399 756v495h203q63 0 107.5 -38.5t44.5 -104.5q0 -47 -24.5 -82t-67.5 -55l108 -215h-102l-97 200h-82v-200h-90zM489 1042h101 q33 0 53.5 17.5t20.5 48.5q0 59 -70 59h-105v-125z" />
<glyph unicode="&#xaf;" horiz-adv-x="1021" d="M236 1214v183h593v-183h-593z" />
<glyph unicode="&#xb0;" horiz-adv-x="817" d="M113 1149q0 59 23.5 112.5t63.5 92.5t93 61.5t115 22.5q61 0 114 -22.5t93 -61.5t63.5 -92.5t23.5 -112.5t-23.5 -111.5t-63.5 -91.5t-93 -61.5t-114 -22.5t-114.5 22.5t-93.5 61.5t-63.5 91.5t-23.5 111.5zM258 1149q0 -59 44 -103.5t106 -44.5q63 0 106 44.5t43 103.5 q0 61 -43 104t-106 43q-61 0 -105.5 -43t-44.5 -104z" />
<glyph unicode="&#xb1;" d="M55 0v164h944v-164h-944zM59 616v166h383v361h172v-361h383v-166h-383v-356h-172v356h-383z" />
<glyph unicode="&#xb2;" horiz-adv-x="690" d="M53 743v123q0 59 20.5 105.5t54.5 84.5t77 69.5t86 60.5q25 16 55.5 35.5t56 42t43 47t17.5 51.5q0 45 -43 66.5t-92 21.5q-47 0 -93.5 -17.5t-87.5 -48.5l-88 121q53 41 126 69t151 28q57 0 111.5 -12.5t95.5 -40t66.5 -72.5t25.5 -113q0 -45 -20.5 -86t-52.5 -76 t-69.5 -65.5t-74.5 -55.5q-25 -16 -57.5 -36.5t-61.5 -45t-49.5 -52t-20.5 -58.5h406v-146h-582z" />
<glyph unicode="&#xb3;" horiz-adv-x="688" d="M31 823l86 127q41 -31 91 -47t91 -16q63 0 104 27.5t41 80.5q0 51 -35.5 81t-84.5 30h-119v141h119q41 0 79.5 28t38.5 83q0 25 -12 42t-32.5 28.5t-44 16.5t-48.5 5q-43 0 -93 -14.5t-91 -46.5l-80 122q53 41 124.5 64.5t153.5 23.5q55 0 107.5 -13t93.5 -40.5t65.5 -74 t24.5 -109.5q0 -59 -31.5 -107.5t-95.5 -68.5q72 -27 101.5 -78t29.5 -104q0 -68 -25.5 -119t-67.5 -84t-97 -49.5t-115 -16.5q-84 0 -154.5 23.5t-123.5 64.5z" />
<glyph unicode="&#xb4;" horiz-adv-x="1021" d="M389 1167l156 379l200 -63l-227 -365z" />
<glyph unicode="&#xb6;" horiz-adv-x="1101" d="M86 1057q0 80 29.5 150.5t82 123.5t123 84t152.5 31h186v-776h-186q-84 0 -154.5 30.5t-123 83t-81 123t-28.5 150.5zM537 -115q88 12 138 34t75.5 54.5t33 77.5t7.5 101v1294h184v-1327q0 -96 -20.5 -170t-69.5 -124t-131 -78t-205 -32z" />
<glyph unicode="&#xb7;" horiz-adv-x="507" d="M102 571q0 66 46.5 110t107.5 44t106.5 -44t45.5 -110q0 -63 -43 -108t-109 -45q-63 0 -108.5 45t-45.5 108z" />
<glyph unicode="&#xb8;" horiz-adv-x="905" d="M274 -389q10 25 19.5 49.5t19.5 50.5q47 -18 85 -23t69 -5q41 0 67.5 18t26.5 51q0 27 -20.5 49.5t-67.5 22.5q-8 0 -15 -1t-18 -3l-69 37l71 229q29 0 55.5 -1t55.5 -3l-53 -160q57 -4 96 -21.5t62.5 -43t33.5 -54t10 -55.5q0 -31 -13 -61.5t-39.5 -57t-68.5 -43 t-100 -16.5q-47 0 -102 9t-105 32z" />
<glyph unicode="&#xb9;" horiz-adv-x="632" d="M88 1432l205 161h151v-848h-168v641l-94 -71z" />
<glyph unicode="&#xba;" horiz-adv-x="722" d="M55 819v158q0 61 24.5 110.5t65.5 84t97.5 53t117.5 18.5q135 0 220.5 -71.5t85.5 -194.5v-158q0 -61 -24 -110.5t-65.5 -83t-97 -52t-119.5 -18.5q-66 0 -121 18.5t-96 52t-64.5 83t-23.5 110.5zM227 840q0 -68 40 -98.5t93 -30.5q47 0 90.5 30.5t43.5 98.5v121 q0 66 -43 97.5t-91 31.5q-47 0 -90 -32t-43 -97v-121z" />
<glyph unicode="&#xbb;" horiz-adv-x="1030" d="M92 70l266 399l-266 401h203l272 -401l-272 -399h-203zM483 70l267 399l-267 401h201l274 -401l-274 -399h-201z" />
<glyph unicode="&#xbc;" horiz-adv-x="1691" d="M156 1249l204 162h152v-848h-168v641l-94 -71zM305 -35l871 1495h161l-872 -1495h-160zM903 121v125l301 600h178l-288 -582h196v232h162v-232h84v-143h-84v-121h-162v121h-387z" />
<glyph unicode="&#xbd;" horiz-adv-x="1691" d="M127 1249l205 162h151v-848h-168v641l-94 -71zM244 -35l870 1495h162l-873 -1495h-159zM981 0v123q0 59 20.5 105t54.5 84t77 70t86 60q25 16 55.5 36t56 42.5t43 47t17.5 50.5q0 45 -43 67t-93 22q-47 0 -93 -17.5t-87 -48.5l-88 121q53 41 126 68.5t151 27.5 q57 0 111.5 -12t95 -40t66.5 -72.5t26 -112.5q0 -45 -20.5 -86t-52.5 -76t-70 -66t-74 -55q-25 -16 -58 -36.5t-61.5 -45.5t-49 -52.5t-20.5 -58.5h406v-145h-582z" />
<glyph unicode="&#xbe;" horiz-adv-x="1691" d="M88 641l86 127q41 -31 91 -47t91 -16q63 0 104.5 27.5t41.5 80.5q0 51 -36 81t-85 30h-119v141h119q41 0 80 27.5t39 83.5q0 25 -12.5 42t-33 28t-44 16.5t-48.5 5.5q-43 0 -93 -14.5t-91 -47.5l-80 123q53 41 125 64.5t154 23.5q55 0 107.5 -13t93 -41t65.5 -74t25 -109 q0 -59 -32 -107.5t-95 -68.5q72 -27 101.5 -78.5t29.5 -104.5q0 -68 -25.5 -119t-67.5 -83.5t-97.5 -49t-114.5 -16.5q-84 0 -155 23.5t-124 64.5zM383 -35l870 1495h162l-872 -1495h-160zM969 121v125l301 600h178l-289 -582h197v232h162v-232h84v-143h-84v-121h-162v121 h-387z" />
<glyph unicode="&#xbf;" horiz-adv-x="970" d="M117 -57q0 92 44 167.5t96 145.5t96 136.5t44 144.5v73h219v-69q0 -61 -12 -109.5t-34.5 -91.5t-52.5 -84t-62 -84q-33 -41 -59.5 -91t-26.5 -110q0 -74 51 -125t141 -51q72 0 140.5 24.5t123.5 71.5q27 -43 53.5 -88t55.5 -88q-92 -72 -193.5 -102.5t-214.5 -30.5 q-88 0 -162.5 28t-130 76t-86 113.5t-30.5 143.5zM360 881q0 59 38 102t106 43q63 0 101 -42t38 -103q0 -53 -38 -95.5t-99 -42.5q-66 0 -106 42t-40 96z" />
<glyph unicode="&#xc0;" horiz-adv-x="1263" d="M20 0l494 1411h238l493 -1411h-254l-96 305h-526l-101 -305h-248zM262 1710l144 156l323 -254l-88 -105zM436 508h391l-84 264l-108 358h-8l-105 -344z" />
<glyph unicode="&#xc1;" horiz-adv-x="1263" d="M20 0l494 1411h238l493 -1411h-254l-96 305h-526l-101 -305h-248zM436 508h391l-84 264l-108 358h-8l-105 -344zM510 1612l344 266l123 -168l-389 -207z" />
<glyph unicode="&#xc2;" horiz-adv-x="1263" d="M20 0l494 1411h238l493 -1411h-254l-96 305h-526l-101 -305h-248zM258 1597l307 256h140l299 -254l-76 -94l-297 172l-299 -172zM436 508h391l-84 264l-108 358h-8l-105 -344z" />
<glyph unicode="&#xc3;" horiz-adv-x="1263" d="M20 0l494 1411h238l493 -1411h-254l-96 305h-526l-101 -305h-248zM254 1597q47 96 106.5 146.5t131.5 50.5q39 0 76.5 -15.5t73.5 -34t67.5 -33.5t56.5 -15q33 0 62.5 21.5t64.5 72.5l119 -70q-49 -104 -105.5 -150t-124.5 -46q-39 0 -75.5 14t-71.5 30.5t-67.5 31 t-61.5 14.5q-35 0 -63.5 -16.5t-69.5 -69.5zM436 508h391l-84 264l-108 358h-8l-105 -344z" />
<glyph unicode="&#xc4;" horiz-adv-x="1263" d="M20 0l494 1411h238l493 -1411h-254l-96 305h-526l-101 -305h-248zM313 1661q0 49 35 84t82 35q51 0 86 -35t35 -84t-35 -84t-86 -35q-47 0 -82 35t-35 84zM436 508h391l-84 264l-108 358h-8l-105 -344zM715 1661q0 49 34.5 84t84.5 35q51 0 84.5 -35t33.5 -84t-33.5 -84 t-84.5 -35q-49 0 -84 35t-35 84z" />
<glyph unicode="&#xc5;" horiz-adv-x="1263" d="M20 0l494 1411h238l493 -1411h-254l-96 305h-526l-101 -305h-248zM403 1675q0 45 18.5 85t49.5 69t72 46t88 17t88 -17t71.5 -46t48 -69t17.5 -85q0 -47 -17.5 -87t-48 -69.5t-71.5 -47t-88 -17.5t-88 17.5t-72 47t-49.5 69.5t-18.5 87zM436 508h391l-84 264l-108 358h-8 l-105 -344zM526 1675q0 -43 31 -72.5t74 -29.5t72.5 29.5t29.5 72.5q0 41 -29.5 70t-72.5 29t-74 -29t-31 -70z" />
<glyph unicode="&#xc6;" horiz-adv-x="2029" d="M2 0q223 356 444.5 705.5t444.5 705.5h1071v-213h-723v-387h619v-209h-619v-393h723v-209h-956v375q-129 0 -256 1t-256 1l-234 -377h-258zM608 571q98 0 197.5 -1t200.5 -1v631h-2q-100 -158 -198.5 -314.5t-197.5 -314.5z" />
<glyph unicode="&#xc7;" horiz-adv-x="1114" d="M115 444v523q0 111 44 195.5t116.5 143t167 89t194.5 30.5q117 0 224.5 -32.5t189.5 -100.5l-115 -182q-59 51 -139 75.5t-156 24.5q-53 0 -105.5 -16t-93.5 -51t-66.5 -90.5t-25.5 -132.5v-428q0 -78 25.5 -133.5t67.5 -90.5t93.5 -51t102.5 -16q76 0 153.5 21.5 t147.5 76.5l111 -180q-70 -57 -173.5 -93t-220.5 -40q-6 -16 -11 -31.5t-9 -32.5q57 -4 96 -21.5t62.5 -43t34 -54t10.5 -55.5q0 -31 -13.5 -61.5t-40 -57t-68.5 -43t-100 -16.5q-47 0 -102 9t-104 32q10 25 19 49.5t20 50.5q47 -18 84.5 -23t68.5 -5q41 0 67.5 18t26.5 51 q0 27 -20.5 49.5t-67.5 22.5q-8 0 -15 -1t-17 -3l-70 37l41 135q-88 12 -167 47t-138.5 92t-94 136t-34.5 177z" />
<glyph unicode="&#xc8;" horiz-adv-x="1161" d="M125 0v1411h956v-211h-723v-387h619v-211h-619v-393h723v-209h-956zM276 1710l144 156l323 -254l-88 -105z" />
<glyph unicode="&#xc9;" horiz-adv-x="1161" d="M125 0v1411h956v-211h-723v-387h619v-211h-619v-393h723v-209h-956zM465 1612l344 266l123 -168l-389 -207z" />
<glyph unicode="&#xca;" horiz-adv-x="1161" d="M125 0v1411h956v-211h-723v-387h619v-211h-619v-393h723v-209h-956zM242 1597l307 256h139l299 -254l-76 -94l-297 172l-299 -172z" />
<glyph unicode="&#xcb;" horiz-adv-x="1161" d="M125 0v1411h956v-211h-723v-387h619v-211h-619v-393h723v-209h-956zM283 1659q0 49 34.5 84t83.5 35t84 -35t35 -84t-34.5 -85t-84.5 -36q-49 0 -83.5 36t-34.5 85zM684 1659q0 49 35 84t86 35q49 0 84 -35t35 -84t-35 -85t-84 -36q-51 0 -86 36t-35 85z" />
<glyph unicode="&#xcc;" horiz-adv-x="561" d="M-92 1710l143 156l324 -254l-88 -105zM164 0v1411h233v-1411h-233z" />
<glyph unicode="&#xcd;" horiz-adv-x="561" d="M164 0v1411h233v-1411h-233zM188 1612l344 266l123 -168l-389 -207z" />
<glyph unicode="&#xce;" horiz-adv-x="561" d="M-96 1597l307 256h139l299 -254l-76 -94l-297 172l-299 -172zM164 0v1411h233v-1411h-233z" />
<glyph unicode="&#xcf;" horiz-adv-x="561" d="M-35 1661q0 49 35 84t82 35q51 0 86 -35t35 -84t-35 -84t-86 -35q-47 0 -82 35t-35 84zM164 0v1411h233v-1411h-233zM367 1661q0 49 34.5 84t83.5 35q51 0 85 -35t34 -84t-33.5 -84t-85.5 -35q-49 0 -83.5 35t-34.5 84z" />
<glyph unicode="&#xd0;" horiz-adv-x="1251" d="M12 633v166h109v612h532q98 0 187.5 -29.5t157 -88t107.5 -143.5t40 -196v-497q0 -109 -40 -193t-108.5 -143.5t-157.5 -90t-188 -30.5h-530v633h-109zM354 207h254q51 0 104.5 15.5t96.5 49t70.5 89t27.5 135.5v415q0 80 -25.5 135.5t-68.5 89t-96 49t-109 15.5h-254 v-401h236v-166h-236v-426z" />
<glyph unicode="&#xd1;" horiz-adv-x="1351" d="M121 0v1411h217l420 -625l227 -350h12v975h234v-1411h-219l-426 635l-217 334h-15v-969h-233zM299 1597q47 96 106.5 146.5t131.5 50.5q39 0 76.5 -15.5t73.5 -34t67.5 -33.5t56.5 -15q33 0 62.5 21.5t64.5 72.5l119 -70q-49 -104 -105.5 -150t-124.5 -46q-39 0 -75.5 14 t-71.5 30.5t-67.5 31t-61.5 14.5q-35 0 -63.5 -16.5t-69.5 -69.5z" />
<glyph unicode="&#xd2;" horiz-adv-x="1280" d="M109 457v501q0 111 42 197t113.5 146.5t167.5 92t207 31.5q109 0 206 -32.5t169.5 -93t114.5 -147.5t42 -198v-497q0 -111 -40.5 -199t-113.5 -148.5t-170 -92t-208 -31.5q-113 0 -210 31.5t-168 92t-111.5 148.5t-40.5 199zM322 1710l143 156l323 -254l-88 -105z M344 492q0 -78 24.5 -133.5t65.5 -90.5t94.5 -51t110.5 -16t111.5 16t95.5 51t65.5 90.5t24.5 133.5v428q0 76 -24.5 131t-65.5 91t-95.5 52t-111.5 16q-59 0 -112.5 -16t-93.5 -52t-64.5 -91.5t-24.5 -130.5v-428z" />
<glyph unicode="&#xd3;" horiz-adv-x="1280" d="M109 457v501q0 111 42 197t113.5 146.5t167.5 92t207 31.5q109 0 206 -32.5t169.5 -93t114.5 -147.5t42 -198v-497q0 -111 -40.5 -199t-113.5 -148.5t-170 -92t-208 -31.5q-113 0 -210 31.5t-168 92t-111.5 148.5t-40.5 199zM344 492q0 -78 24.5 -133.5t65.5 -90.5 t94.5 -51t110.5 -16t111.5 16t95.5 51t65.5 90.5t24.5 133.5v428q0 76 -24.5 131t-65.5 91t-95.5 52t-111.5 16q-59 0 -112.5 -16t-93.5 -52t-64.5 -91.5t-24.5 -130.5v-428zM502 1612l344 266l123 -168l-389 -207z" />
<glyph unicode="&#xd4;" horiz-adv-x="1280" d="M109 457v501q0 111 42 197t113.5 146.5t167.5 92t207 31.5q109 0 206 -32.5t169.5 -93t114.5 -147.5t42 -198v-497q0 -111 -40.5 -199t-113.5 -148.5t-170 -92t-208 -31.5q-113 0 -210 31.5t-168 92t-111.5 148.5t-40.5 199zM270 1597l308 256h139l299 -254l-76 -94 l-297 172l-299 -172zM344 492q0 -78 24.5 -133.5t65.5 -90.5t94.5 -51t110.5 -16t111.5 16t95.5 51t65.5 90.5t24.5 133.5v428q0 76 -24.5 131t-65.5 91t-95.5 52t-111.5 16q-59 0 -112.5 -16t-93.5 -52t-64.5 -91.5t-24.5 -130.5v-428z" />
<glyph unicode="&#xd5;" horiz-adv-x="1280" d="M109 457v501q0 111 42 197t113.5 146.5t167.5 92t207 31.5q109 0 206 -32.5t169.5 -93t114.5 -147.5t42 -198v-497q0 -111 -40.5 -199t-113.5 -148.5t-170 -92t-208 -31.5q-113 0 -210 31.5t-168 92t-111.5 148.5t-40.5 199zM266 1597q47 96 106.5 146.5t131.5 50.5 q39 0 76.5 -15.5t73.5 -34t68 -33.5t56 -15q33 0 62.5 21.5t64.5 72.5l119 -70q-49 -104 -105.5 -150t-123.5 -46q-39 0 -76 14t-72 30.5t-67.5 31t-61.5 14.5q-35 0 -63.5 -16.5t-69.5 -69.5zM344 492q0 -78 24.5 -133.5t65.5 -90.5t94.5 -51t110.5 -16t111.5 16t95.5 51 t65.5 90.5t24.5 133.5v428q0 76 -24.5 131t-65.5 91t-95.5 52t-111.5 16q-59 0 -112.5 -16t-93.5 -52t-64.5 -91.5t-24.5 -130.5v-428z" />
<glyph unicode="&#xd6;" horiz-adv-x="1280" d="M109 457v501q0 111 42 197t113.5 146.5t167.5 92t207 31.5q109 0 206 -32.5t169.5 -93t114.5 -147.5t42 -198v-497q0 -111 -40.5 -199t-113.5 -148.5t-170 -92t-208 -31.5q-113 0 -210 31.5t-168 92t-111.5 148.5t-40.5 199zM326 1661q0 49 34.5 84t81.5 35q51 0 86 -35 t35 -84t-34.5 -84t-86.5 -35q-47 0 -81.5 35t-34.5 84zM344 492q0 -78 24.5 -133.5t65.5 -90.5t94.5 -51t110.5 -16t111.5 16t95.5 51t65.5 90.5t24.5 133.5v428q0 76 -24.5 131t-65.5 91t-95.5 52t-111.5 16q-59 0 -112.5 -16t-93.5 -52t-64.5 -91.5t-24.5 -130.5v-428z M727 1661q0 49 35 84t84 35q51 0 85 -35t34 -84t-34 -84t-85 -35q-49 0 -84 35t-35 84z" />
<glyph unicode="&#xd7;" d="M72 915l118 117l336 -336l326 328l121 -121l-328 -328l338 -337l-117 -117l-338 338l-329 -332l-121 121l330 332z" />
<glyph unicode="&#xd8;" horiz-adv-x="1280" d="M106 49l91 127q-88 113 -88 281v501q0 111 42 197t113.5 146.5t167.5 92t207 31.5q104 0 195.5 -29.5t162.5 -82.5l82 114l95 -63l-95 -133q43 -55 67.5 -125t24.5 -152v-497q0 -111 -40.5 -199t-113.5 -148.5t-170 -92t-208 -31.5q-217 0 -363 110l-77 -110zM344 492 q0 -27 2 -48.5t8 -44.5l510 723q-41 47 -100 67.5t-125 20.5q-59 0 -112.5 -16t-93.5 -52t-64.5 -91.5t-24.5 -130.5v-428zM412 289q41 -47 101 -67.5t126 -20.5q57 0 111.5 16t95.5 51t65.5 90.5t24.5 133.5v428q0 51 -12 92z" />
<glyph unicode="&#xd9;" horiz-adv-x="1284" d="M113 444v967h233v-924q0 -78 24.5 -132t66.5 -89t95.5 -51t110.5 -16q55 0 109.5 16t95.5 51t66.5 89.5t25.5 131.5v924h236v-965q0 -111 -44.5 -196.5t-118 -144t-169.5 -89t-201 -30.5q-106 0 -202.5 29.5t-169 88t-115.5 144.5t-43 196zM315 1710l144 156l323 -254 l-88 -105z" />
<glyph unicode="&#xda;" horiz-adv-x="1284" d="M113 444v967h233v-924q0 -78 24.5 -132t66.5 -89t95.5 -51t110.5 -16q55 0 109.5 16t95.5 51t66.5 89.5t25.5 131.5v924h236v-965q0 -111 -44.5 -196.5t-118 -144t-169.5 -89t-201 -30.5q-106 0 -202.5 29.5t-169 88t-115.5 144.5t-43 196zM492 1612l344 266l122 -168 l-389 -207z" />
<glyph unicode="&#xdb;" horiz-adv-x="1284" d="M113 444v967h233v-924q0 -78 24.5 -132t66.5 -89t95.5 -51t110.5 -16q55 0 109.5 16t95.5 51t66.5 89.5t25.5 131.5v924h236v-965q0 -111 -44.5 -196.5t-118 -144t-169.5 -89t-201 -30.5q-106 0 -202.5 29.5t-169 88t-115.5 144.5t-43 196zM266 1597l307 256h140 l299 -254l-76 -94l-297 172l-299 -172z" />
<glyph unicode="&#xdc;" horiz-adv-x="1284" d="M113 444v967h233v-924q0 -78 24.5 -132t66.5 -89t95.5 -51t110.5 -16q55 0 109.5 16t95.5 51t66.5 89.5t25.5 131.5v924h236v-965q0 -111 -44.5 -196.5t-118 -144t-169.5 -89t-201 -30.5q-106 0 -202.5 29.5t-169 88t-115.5 144.5t-43 196zM330 1661q0 49 34.5 84 t81.5 35q51 0 86 -35t35 -84t-34.5 -84t-86.5 -35q-47 0 -81.5 35t-34.5 84zM731 1661q0 49 35 84t84 35q51 0 85 -35t34 -84t-34 -84t-85 -35q-49 0 -84 35t-35 84z" />
<glyph unicode="&#xdd;" horiz-adv-x="1138" d="M23 1411h253l154 -330l133 -299h15l135 308l151 321h250l-426 -864v-547h-235v547zM414 1612l344 266l123 -168l-389 -207z" />
<glyph unicode="&#xde;" horiz-adv-x="1157" d="M115 0v1411h233v-254h375q102 0 178 -39t125 -101.5t73.5 -139t24.5 -152.5t-27.5 -152.5t-79.5 -138t-127 -100.5t-171 -39h-371v-295h-233zM348 508h324q102 0 162.5 59.5t60.5 157.5t-60.5 159.5t-162.5 61.5h-324v-438z" />
<glyph unicode="&#xdf;" horiz-adv-x="1052" d="M102 0v1047q0 94 30 170.5t84 131t130 84t168 29.5q113 0 189.5 -33.5t123.5 -86t67.5 -116t20.5 -120.5q0 -29 -7 -65.5t-22.5 -73.5t-41 -70t-62.5 -55q47 -16 82 -48t56.5 -73t32 -88t10.5 -94l2 -187q0 -170 -93.5 -267t-253.5 -97q-23 0 -51 1t-59 5l4 196h68 q49 0 81.5 15.5t51 43t25.5 62.5t7 76v154q0 90 -56 137t-142 47h-19v174h11q45 0 77.5 19.5t54 49t32 62.5t10.5 62q0 35 -11.5 69.5t-36 61t-61.5 43t-88 16.5q-55 0 -93 -18.5t-61.5 -48t-34 -65.5t-10.5 -71l2 -1079h-217z" />
<glyph unicode="&#xe0;" horiz-adv-x="1044" d="M80 299q0 84 37 141.5t92 93t119.5 52t120.5 16.5h280v62q0 90 -51 128.5t-158 38.5q-51 0 -126 -15t-150 -77l-101 162q102 78 206 101.5t192 23.5q209 0 307 -92t98 -281v-653h-196l-19 88l-6 4q-109 -61 -183.5 -80.5t-138.5 -19.5q-152 0 -237.5 82t-85.5 225z M283 1481l200 65l162 -375l-127 -53zM309 307q0 -57 41 -89t109 -32q37 0 73.5 9.5t72.5 22.5t68 29.5t56 31.5v155h-244q-29 0 -59.5 -4t-56 -17.5t-43 -38t-17.5 -67.5z" />
<glyph unicode="&#xe1;" horiz-adv-x="1044" d="M80 299q0 84 37 141.5t92 93t119.5 52t120.5 16.5h280v62q0 90 -51 128.5t-158 38.5q-51 0 -126 -15t-150 -77l-101 162q102 78 206 101.5t192 23.5q209 0 307 -92t98 -281v-653h-196l-19 88l-6 4q-109 -61 -183.5 -80.5t-138.5 -19.5q-152 0 -237.5 82t-85.5 225z M309 307q0 -57 41 -89t109 -32q37 0 73.5 9.5t72.5 22.5t68 29.5t56 31.5v155h-244q-29 0 -59.5 -4t-56 -17.5t-43 -38t-17.5 -67.5zM477 1167l156 379l201 -63l-228 -365z" />
<glyph unicode="&#xe2;" horiz-adv-x="1044" d="M80 299q0 84 37 141.5t92 93t119.5 52t120.5 16.5h280v62q0 90 -51 128.5t-158 38.5q-51 0 -126 -15t-150 -77l-101 162q102 78 206 101.5t192 23.5q209 0 307 -92t98 -281v-653h-196l-19 88l-6 4q-109 -61 -183.5 -80.5t-138.5 -19.5q-152 0 -237.5 82t-85.5 225z M162 1194l305 315h143l297 -311l-94 -88l-278 217q-12 -8 -53.5 -40t-88.5 -68.5t-88 -68.5t-53 -40zM309 307q0 -57 41 -89t109 -32q37 0 73.5 9.5t72.5 22.5t68 29.5t56 31.5v155h-244q-29 0 -59.5 -4t-56 -17.5t-43 -38t-17.5 -67.5z" />
<glyph unicode="&#xe3;" horiz-adv-x="1044" d="M80 299q0 84 37 141.5t92 93t119.5 52t120.5 16.5h280v62q0 90 -51 128.5t-158 38.5q-51 0 -126 -15t-150 -77l-101 162q102 78 206 101.5t192 23.5q209 0 307 -92t98 -281v-653h-196l-19 88l-6 4q-109 -61 -183.5 -80.5t-138.5 -19.5q-152 0 -237.5 82t-85.5 225z M162 1249q47 96 106 146.5t131 50.5q39 0 77 -15.5t74 -34t67.5 -33.5t56.5 -15q33 0 62.5 21.5t64.5 72.5l119 -70q-49 -104 -105.5 -150t-124.5 -46q-39 0 -75.5 14t-71.5 30.5t-68 31t-61 14.5q-35 0 -63.5 -16.5t-69.5 -69.5zM309 307q0 -57 41 -89t109 -32 q37 0 73.5 9.5t72.5 22.5t68 29.5t56 31.5v155h-244q-29 0 -59.5 -4t-56 -17.5t-43 -38t-17.5 -67.5z" />
<glyph unicode="&#xe4;" horiz-adv-x="1044" d="M80 299q0 84 37 141.5t92 93t119.5 52t120.5 16.5h280v62q0 90 -51 128.5t-158 38.5q-51 0 -126 -15t-150 -77l-101 162q102 78 206 101.5t192 23.5q209 0 307 -92t98 -281v-653h-196l-19 88l-6 4q-109 -61 -183.5 -80.5t-138.5 -19.5q-152 0 -237.5 82t-85.5 225z M236 1294q0 49 34.5 84t81.5 35q51 0 86 -35t35 -84t-35 -83.5t-86 -34.5q-47 0 -81.5 34.5t-34.5 83.5zM309 307q0 -57 41 -89t109 -32q37 0 73.5 9.5t72.5 22.5t68 29.5t56 31.5v155h-244q-29 0 -59.5 -4t-56 -17.5t-43 -38t-17.5 -67.5zM637 1294q0 49 35 84t84 35 q51 0 86 -35t35 -84t-35 -83.5t-86 -34.5q-49 0 -84 34.5t-35 83.5z" />
<glyph unicode="&#xe5;" horiz-adv-x="1044" d="M80 299q0 84 37 141.5t92 93t119.5 52t120.5 16.5h280v62q0 90 -51 128.5t-158 38.5q-51 0 -126 -15t-150 -77l-101 162q102 78 206 101.5t192 23.5q209 0 307 -92t98 -281v-653h-196l-19 88l-6 4q-109 -61 -183.5 -80.5t-138.5 -19.5q-152 0 -237.5 82t-85.5 225z M309 307q0 -57 41 -89t109 -32q37 0 73.5 9.5t72.5 22.5t68 29.5t56 31.5v155h-244q-29 0 -59.5 -4t-56 -17.5t-43 -38t-17.5 -67.5zM332 1319q0 45 18.5 85t49 68.5t71.5 46t88 17.5t88 -17.5t72 -46t48 -68.5t17 -85q0 -47 -17 -87t-48 -69.5t-72 -47t-88 -17.5t-88 17.5 t-71.5 47t-49 69.5t-18.5 87zM455 1319q0 -43 30.5 -72.5t73.5 -29.5t73 29.5t30 72.5q0 41 -30 69.5t-73 28.5t-73.5 -28.5t-30.5 -69.5z" />
<glyph unicode="&#xe6;" horiz-adv-x="1648" d="M80 297q0 84 37 141.5t92 93t119.5 52t120.5 16.5h280v62q0 94 -60.5 130.5t-160.5 36.5q-51 0 -120 -15t-144 -77l-103 162q102 78 198.5 101.5t184.5 23.5q219 0 326 -111q55 53 132 82t169 29t170 -26.5t133 -77t87 -122t32 -163.5v-193h-627v-59q0 -53 18.5 -90 t49 -60.5t70.5 -35t83 -11.5q47 0 113 16.5t133 76.5l127 -150q-86 -84 -181 -111.5t-192 -27.5q-111 0 -204 33.5t-152 105.5q-20 -12 -40.5 -25.5t-41.5 -23.5q-117 -59 -193.5 -73.5t-129.5 -14.5q-152 0 -239 82t-87 223zM309 305q0 -57 41 -88t109 -31q37 0 73.5 9.5 t72.5 22.5t68 29.5t56 31.5v163h-240q-29 0 -60.5 -5t-58 -20.5t-44 -42t-17.5 -69.5zM948 598h406v25q0 106 -59.5 154t-143.5 48q-80 0 -141.5 -50t-61.5 -148v-29z" />
<glyph unicode="&#xe7;" horiz-adv-x="903" d="M94 352v301q0 90 35 160t92.5 117t131 71.5t151.5 24.5q45 0 92 -5t93 -18.5t90 -39t85 -68.5l-127 -162q-70 63 -124 77.5t-95 14.5q-35 0 -71.5 -11t-66.5 -35.5t-49.5 -64.5t-19.5 -98v-217q0 -57 17.5 -97t46 -64.5t65.5 -36t76 -11.5q43 0 104.5 19.5t110.5 66.5 l133 -149q-78 -78 -163 -105.5t-173 -31.5l-20 -68q57 -4 96 -21.5t62.5 -43t34 -54t10.5 -55.5q0 -31 -13.5 -61.5t-40 -57t-68.5 -43t-100 -16.5q-47 0 -102 9t-104 32q10 25 19 49.5t20 50.5q47 -18 84.5 -23t68.5 -5q41 0 67.5 18t26.5 51q0 27 -20.5 49.5t-67.5 22.5 q-8 0 -15 -1t-17 -3l-70 37l43 139q-143 23 -235.5 115t-92.5 241z" />
<glyph unicode="&#xe8;" horiz-adv-x="1013" d="M94 360v267q0 92 32 165.5t89 125t133 79t166 27.5q92 0 170 -26.5t134 -77t87 -122t31 -163.5v-199h-625v-51q0 -53 18.5 -91t48.5 -61.5t69.5 -35t82.5 -11.5q47 0 114 16.5t132 76.5q33 -39 64.5 -75t62.5 -75q-86 -84 -181 -111.5t-192 -27.5q-88 0 -166.5 22.5 t-139 68.5t-95.5 115.5t-35 163.5zM264 1481l201 65l162 -375l-127 -53zM313 592h404v31q0 106 -59.5 154t-141.5 48t-142.5 -50t-60.5 -150v-33z" />
<glyph unicode="&#xe9;" horiz-adv-x="1013" d="M94 360v267q0 92 32 165.5t89 125t133 79t166 27.5q92 0 170 -26.5t134 -77t87 -122t31 -163.5v-199h-625v-51q0 -53 18.5 -91t48.5 -61.5t69.5 -35t82.5 -11.5q47 0 114 16.5t132 76.5q33 -39 64.5 -75t62.5 -75q-86 -84 -181 -111.5t-192 -27.5q-88 0 -166.5 22.5 t-139 68.5t-95.5 115.5t-35 163.5zM313 592h404v31q0 106 -59.5 154t-141.5 48t-142.5 -50t-60.5 -150v-33zM416 1167l155 379l201 -63l-227 -365z" />
<glyph unicode="&#xea;" horiz-adv-x="1013" d="M94 360v267q0 92 32 165.5t89 125t133 79t166 27.5q92 0 170 -26.5t134 -77t87 -122t31 -163.5v-199h-625v-51q0 -53 18.5 -91t48.5 -61.5t69.5 -35t82.5 -11.5q47 0 114 16.5t132 76.5q33 -39 64.5 -75t62.5 -75q-86 -84 -181 -111.5t-192 -27.5q-88 0 -166.5 22.5 t-139 68.5t-95.5 115.5t-35 163.5zM152 1194l305 315h143l297 -311l-94 -88l-279 217q-12 -8 -53 -40t-88 -68.5t-88 -68.5t-53 -40zM313 592h404v31q0 106 -59.5 154t-141.5 48t-142.5 -50t-60.5 -150v-33z" />
<glyph unicode="&#xeb;" horiz-adv-x="1013" d="M94 360v267q0 92 32 165.5t89 125t133 79t166 27.5q92 0 170 -26.5t134 -77t87 -122t31 -163.5v-199h-625v-51q0 -53 18.5 -91t48.5 -61.5t69.5 -35t82.5 -11.5q47 0 114 16.5t132 76.5q33 -39 64.5 -75t62.5 -75q-86 -84 -181 -111.5t-192 -27.5q-88 0 -166.5 22.5 t-139 68.5t-95.5 115.5t-35 163.5zM201 1294q0 49 34.5 84t81.5 35q51 0 86 -35t35 -84t-34.5 -83.5t-86.5 -34.5q-47 0 -81.5 34.5t-34.5 83.5zM313 592h404v31q0 106 -59.5 154t-141.5 48t-142.5 -50t-60.5 -150v-33zM602 1294q0 49 35 84t84 35q51 0 86 -35t35 -84 t-35 -83.5t-86 -34.5q-49 0 -84 34.5t-35 83.5z" />
<glyph unicode="&#xec;" horiz-adv-x="509" d="M-31 1481l203 65l162 -375l-127 -53zM152 0v1014h217v-1014h-217z" />
<glyph unicode="&#xed;" horiz-adv-x="509" d="M152 0v1014h217v-1014h-217zM174 1167l158 379l200 -63l-229 -365z" />
<glyph unicode="&#xee;" horiz-adv-x="704" d="M-20 1194l305 315h143l297 -311l-94 -88l-279 217q-12 -8 -53 -40t-88 -68.5t-88 -68.5t-53 -40zM246 0v1014h217v-1014h-217z" />
<glyph unicode="&#xef;" horiz-adv-x="600" d="M-20 1294q0 49 34.5 84t83.5 35t84 -35t35 -84t-35 -83.5t-84 -34.5t-83.5 34.5t-34.5 83.5zM193 0v1014h217v-1014h-217zM381 1294q0 49 35 84t86 35q49 0 84 -35t35 -84t-35 -83.5t-84 -34.5q-51 0 -86 34.5t-35 83.5z" />
<glyph unicode="&#xf0;" horiz-adv-x="1052" d="M92 358v213q0 90 34 164t90 126t132 81t162 29q68 0 132.5 -18.5t109.5 -59.5q2 0 3 1t3 1q-4 74 -15.5 134.5t-42.5 103.5l-133 -99q-18 23 -36.5 46.5t-34.5 45.5q31 23 62.5 46.5t62.5 46.5q-35 33 -96.5 60.5t-162.5 43.5q10 43 19.5 87t19.5 87q117 -12 217.5 -51 t159.5 -105q35 29 73 54.5t73 54.5l73 -94q-35 -25 -69.5 -51.5t-69.5 -51.5q37 -57 57.5 -113.5t30.5 -120t12.5 -137t2.5 -165.5v-219q0 -29 -1.5 -54.5t-3.5 -52.5q-8 -180 -120.5 -290.5t-323.5 -110.5q-88 0 -165 23.5t-133 69.5t-89 115.5t-33 159.5zM309 399 q0 -115 63.5 -162t151.5 -47q41 0 80 11.5t68.5 37t48 65.5t18.5 97v160q0 57 -18.5 96t-49 63.5t-68.5 36t-75 11.5q-43 0 -82.5 -13.5t-70.5 -41t-48.5 -68.5t-17.5 -98v-148z" />
<glyph unicode="&#xf1;" horiz-adv-x="1050" d="M94 0v1014h197l20 -101q61 37 111.5 59.5t90.5 35t71.5 15.5t58.5 3q160 0 239 -96t79 -266v-664h-220v633q0 104 -45 144t-112 40q-55 0 -125 -26.5t-148 -75.5v-715h-217zM141 1249q47 96 106.5 146.5t131.5 50.5q39 0 77 -15.5t73.5 -34t67.5 -33.5t56 -15 q33 0 62.5 21.5t64.5 72.5l119 -70q-49 -104 -105.5 -150t-123.5 -46q-39 0 -76 14t-72 30.5t-67.5 31t-61.5 14.5q-35 0 -63.5 -16.5t-69.5 -69.5z" />
<glyph unicode="&#xf2;" horiz-adv-x="1048" d="M92 358v295q0 90 36 160t95.5 117t137 71.5t163.5 24.5q92 0 170 -24.5t136.5 -72.5t91 -118t32.5 -160v-293q0 -90 -35.5 -159.5t-96 -115.5t-138.5 -69.5t-162 -23.5q-86 0 -164.5 23.5t-137 69.5t-93.5 115.5t-35 159.5zM287 1481l200 65l162 -375l-127 -53zM309 399 q0 -115 63.5 -162t151.5 -47q37 0 76 11.5t69.5 36t50 64.5t19.5 97v215q0 57 -19.5 97.5t-50 65t-69.5 35.5t-76 11t-75.5 -11t-69.5 -35.5t-50.5 -64.5t-19.5 -98v-215z" />
<glyph unicode="&#xf3;" horiz-adv-x="1048" d="M92 358v295q0 90 36 160t95.5 117t137 71.5t163.5 24.5q92 0 170 -24.5t136.5 -72.5t91 -118t32.5 -160v-293q0 -90 -35.5 -159.5t-96 -115.5t-138.5 -69.5t-162 -23.5q-86 0 -164.5 23.5t-137 69.5t-93.5 115.5t-35 159.5zM309 399q0 -115 63.5 -162t151.5 -47 q37 0 76 11.5t69.5 36t50 64.5t19.5 97v215q0 57 -19.5 97.5t-50 65t-69.5 35.5t-76 11t-75.5 -11t-69.5 -35.5t-50.5 -64.5t-19.5 -98v-215zM434 1167l156 379l201 -63l-228 -365z" />
<glyph unicode="&#xf4;" horiz-adv-x="1048" d="M92 358v295q0 90 36 160t95.5 117t137 71.5t163.5 24.5q92 0 170 -24.5t136.5 -72.5t91 -118t32.5 -160v-293q0 -90 -35.5 -159.5t-96 -115.5t-138.5 -69.5t-162 -23.5q-86 0 -164.5 23.5t-137 69.5t-93.5 115.5t-35 159.5zM156 1194l305 315h143l297 -311l-94 -88 l-279 217q-12 -8 -53 -40t-88 -68.5t-88 -68.5t-53 -40zM309 399q0 -115 63.5 -162t151.5 -47q37 0 76 11.5t69.5 36t50 64.5t19.5 97v215q0 57 -19.5 97.5t-50 65t-69.5 35.5t-76 11t-75.5 -11t-69.5 -35.5t-50.5 -64.5t-19.5 -98v-215z" />
<glyph unicode="&#xf5;" horiz-adv-x="1048" d="M92 358v295q0 90 36 160t95.5 117t137 71.5t163.5 24.5q92 0 170 -24.5t136.5 -72.5t91 -118t32.5 -160v-293q0 -90 -35.5 -159.5t-96 -115.5t-138.5 -69.5t-162 -23.5q-86 0 -164.5 23.5t-137 69.5t-93.5 115.5t-35 159.5zM164 1249q47 96 106 146.5t131 50.5 q39 0 77 -15.5t74 -34t67.5 -33.5t56.5 -15q33 0 62.5 21.5t64.5 72.5l119 -70q-49 -104 -105.5 -150t-124.5 -46q-39 0 -75.5 14t-71.5 30.5t-68 31t-61 14.5q-35 0 -63.5 -16.5t-69.5 -69.5zM309 399q0 -115 63.5 -162t151.5 -47q37 0 76 11.5t69.5 36t50 64.5t19.5 97 v215q0 57 -19.5 97.5t-50 65t-69.5 35.5t-76 11t-75.5 -11t-69.5 -35.5t-50.5 -64.5t-19.5 -98v-215z" />
<glyph unicode="&#xf6;" horiz-adv-x="1048" d="M92 358v295q0 90 36 160t95.5 117t137 71.5t163.5 24.5q92 0 170 -24.5t136.5 -72.5t91 -118t32.5 -160v-293q0 -90 -35.5 -159.5t-96 -115.5t-138.5 -69.5t-162 -23.5q-86 0 -164.5 23.5t-137 69.5t-93.5 115.5t-35 159.5zM211 1294q0 49 35 84t82 35q51 0 86 -35 t35 -84t-35 -83.5t-86 -34.5q-47 0 -82 34.5t-35 83.5zM309 399q0 -115 63.5 -162t151.5 -47q37 0 76 11.5t69.5 36t50 64.5t19.5 97v215q0 57 -19.5 97.5t-50 65t-69.5 35.5t-76 11t-75.5 -11t-69.5 -35.5t-50.5 -64.5t-19.5 -98v-215zM612 1294q0 49 35 84t84 35 q51 0 86 -35t35 -84t-35 -83.5t-86 -34.5q-49 0 -84 34.5t-35 83.5z" />
<glyph unicode="&#xf7;" d="M51 522v164h965v-164h-965zM395 213q0 55 40 94t100 39q57 0 97 -39t40 -94q0 -57 -40 -95t-97 -38q-59 0 -99.5 38t-40.5 95zM395 991q0 55 40 94t100 39q57 0 97 -39t40 -94t-40 -95t-97 -40q-59 0 -99.5 40t-40.5 95z" />
<glyph unicode="&#xf8;" horiz-adv-x="1048" d="M90 45l74 92q-35 43 -53.5 98.5t-18.5 122.5v295q0 90 36 160t95.5 117t137 71.5t163.5 24.5q174 0 289 -84l68 84l73 -57l-73 -92q74 -92 73 -226v-293q0 -90 -35.5 -159.5t-96 -115.5t-138.5 -69.5t-162 -23.5t-157.5 21.5t-131.5 62.5l-71 -88zM309 399q0 -45 8 -71 l359 442q-33 29 -73 41t-79 12q-37 0 -75.5 -11t-69.5 -35.5t-50.5 -64.5t-19.5 -98v-215zM369 242q29 -29 68.5 -40.5t86.5 -11.5q37 0 76 11.5t69.5 36t50 64.5t19.5 97v215q0 39 -10 74z" />
<glyph unicode="&#xf9;" horiz-adv-x="1056" d="M90 360v654h219v-635q0 -102 47 -143t113 -41q113 0 270 110v709h219v-1014h-198l-21 98q-119 -72 -191.5 -91t-123.5 -19q-166 0 -250 101t-84 271zM281 1481l200 65l162 -375l-127 -53z" />
<glyph unicode="&#xfa;" horiz-adv-x="1056" d="M90 360v654h219v-635q0 -102 47 -143t113 -41q113 0 270 110v709h219v-1014h-198l-21 98q-119 -72 -191.5 -91t-123.5 -19q-166 0 -250 101t-84 271zM424 1167l156 379l200 -63l-227 -365z" />
<glyph unicode="&#xfb;" horiz-adv-x="1056" d="M90 360v654h219v-635q0 -102 47 -143t113 -41q113 0 270 110v709h219v-1014h-198l-21 98q-119 -72 -191.5 -91t-123.5 -19q-166 0 -250 101t-84 271zM152 1194l305 315h143l297 -311l-94 -88l-279 217q-12 -8 -53 -40t-88 -68.5t-88 -68.5t-53 -40z" />
<glyph unicode="&#xfc;" horiz-adv-x="1056" d="M90 360v654h219v-635q0 -102 47 -143t113 -41q113 0 270 110v709h219v-1014h-198l-21 98q-119 -72 -191.5 -91t-123.5 -19q-166 0 -250 101t-84 271zM201 1294q0 49 34.5 84t81.5 35q51 0 86 -35t35 -84t-34.5 -83.5t-86.5 -34.5q-47 0 -81.5 34.5t-34.5 83.5zM602 1294 q0 49 35 84t84 35q51 0 86 -35t35 -84t-35 -83.5t-86 -34.5q-49 0 -84 34.5t-35 83.5z" />
<glyph unicode="&#xfd;" horiz-adv-x="966" d="M20 1016h230l108 -416l101 -371h6l129 373l137 414h230l-519 -1426h-225l154 430l-74 60zM381 1167l156 379l200 -63l-227 -365z" />
<glyph unicode="&#xfe;" horiz-adv-x="1042" d="M98 -406v1817h217v-498q98 63 175 87t131 24q158 0 249 -89t91 -278v-305q0 -170 -93.5 -267t-263.5 -97q-53 0 -127 10t-162 51v-455h-217zM315 252q82 -35 140.5 -47t113.5 -12q35 0 67 8t55.5 29.5t36.5 56.5t13 86v266q0 102 -44 140t-111 38q-27 0 -60.5 -8 t-70.5 -22.5t-73 -33t-67 -38.5v-463z" />
<glyph unicode="&#xff;" horiz-adv-x="966" d="M20 1016h230l108 -416l101 -371h6l129 373l137 414h230l-519 -1426h-225l154 430l-74 60zM166 1294q0 49 35 84t82 35q51 0 85.5 -35t34.5 -84t-34.5 -83.5t-85.5 -34.5q-47 0 -82 34.5t-35 83.5zM567 1294q0 49 35 84t84 35q51 0 86 -35t35 -84t-35 -83.5t-86 -34.5 q-49 0 -84 34.5t-35 83.5z" />
<glyph unicode="&#x131;" horiz-adv-x="520" d="M152 0v1014h217v-1014h-217z" />
<glyph unicode="&#x152;" horiz-adv-x="1830" d="M109 457v501q0 111 42 197t113.5 146.5t167.5 92t207 31.5q41 0 80 -3t76 -11h956v-211h-723v-387h619v-211h-619v-393h723v-209h-954q-72 -14 -158 -14q-113 0 -210 31.5t-168 92t-111.5 148.5t-40.5 199zM344 492q0 -78 24.5 -133.5t65.5 -90.5t94.5 -51t110.5 -16 q41 0 81 6t75 24v947q-35 18 -75 25t-81 7q-59 0 -112.5 -16t-93.5 -52t-64.5 -91.5t-24.5 -130.5v-428z" />
<glyph unicode="&#x153;" horiz-adv-x="1662" d="M94 358v295q0 90 35 160t94.5 117t137 71.5t163.5 24.5q102 0 186.5 -30.5t141.5 -88.5q57 55 137 86t174 31q92 0 169 -26.5t133.5 -78t87 -123t30.5 -161.5v-199h-625v-51q0 -55 20.5 -93t53.5 -60.5t76 -33t90 -10.5t107.5 19.5t119.5 71.5q31 -39 63 -75t64 -75 q-86 -84 -181 -111.5t-191 -27.5q-98 0 -185.5 27.5t-146.5 86.5q-59 -57 -144.5 -85.5t-179.5 -28.5q-88 0 -165.5 23.5t-136 69.5t-93.5 115.5t-35 159.5zM311 399q0 -115 63.5 -162t151.5 -47q37 0 74 10.5t67.5 34t51 61.5t22.5 93v229q-2 57 -21.5 96.5t-50 64 t-68.5 34.5t-75 10t-75.5 -11t-69.5 -35.5t-50.5 -64.5t-19.5 -98v-215zM961 592h403v31q0 106 -59.5 154t-141.5 48q-86 0 -144 -53t-58 -162v-18z" />
<glyph unicode="&#x178;" horiz-adv-x="1138" d="M23 1411h253l154 -330l133 -299h15l135 308l151 321h250l-426 -864v-547h-235v547zM250 1661q0 49 34.5 84t82.5 35q51 0 85.5 -35t34.5 -84t-34.5 -84t-85.5 -35q-47 0 -82 35t-35 84zM651 1661q0 49 35 84t84 35q51 0 85 -35t34 -84t-34 -84t-85 -35q-49 0 -84 35 t-35 84z" />
<glyph unicode="&#x192;" d="M8 -147l60 172q45 -18 75.5 -23.5t55.5 -5.5q74 0 110.5 70.5t52.5 189.5l62 432h-170l-2 180h197l20 138q8 72 31.5 147.5t68.5 138t115 102.5t174 40q100 0 184 -33l-47 -182q-37 14 -72.5 18t-64.5 4q-43 0 -72.5 -20.5t-50 -53t-33 -75.5t-18.5 -86q0 -4 -3 -24.5 t-6 -43.5t-6 -43.5t-3 -26.5h206l5 -180h-234l-61 -440q-12 -94 -37 -175t-67 -139.5t-104.5 -92.5t-148.5 -34q-45 0 -107.5 12.5t-109.5 33.5z" />
<glyph unicode="&#x2c6;" horiz-adv-x="1021" d="M145 1194l306 315h143l297 -311l-94 -88l-279 217q-12 -8 -53 -40t-88 -68.5t-88 -68.5t-53 -40z" />
<glyph unicode="&#x2c7;" horiz-adv-x="1021" d="M145 1425l91 84q12 -8 53 -38.5t88 -67.5t88 -68.5t53 -40.5l279 215l94 -86l-297 -313h-143z" />
<glyph unicode="&#x2d8;" horiz-adv-x="1060" d="M248 1444h168q2 -20 11 -43t26.5 -42.5t42 -32.5t55.5 -13q35 0 60.5 13t43 32.5t25.5 42t8 43.5h166q-4 -43 -20.5 -92t-50 -92t-90 -72t-142.5 -29t-142.5 29t-92 72t-51 92t-17.5 92z" />
<glyph unicode="&#x2d9;" horiz-adv-x="903" d="M326 1313q0 49 34.5 88t92.5 39q59 0 96 -39t37 -88q0 -53 -35 -93t-96 -40q-59 0 -94 37.5t-35 95.5z" />
<glyph unicode="&#x2da;" horiz-adv-x="1021" d="M311 1319q0 45 18.5 85t49.5 68.5t72 46t88 17.5t88 -17.5t71.5 -46t48 -68.5t17.5 -85q0 -47 -17.5 -87t-48 -69.5t-71.5 -47t-88 -17.5t-88 17.5t-72 47t-49.5 69.5t-18.5 87zM434 1319q0 -43 31 -72.5t74 -29.5t72.5 29.5t29.5 72.5q0 41 -29.5 69.5t-72.5 28.5 t-74 -28.5t-31 -69.5z" />
<glyph unicode="&#x2db;" horiz-adv-x="583" d="M119 -197q0 43 17.5 90.5t64.5 112.5h139l4 -6q-39 -53 -56.5 -92t-17.5 -74q0 -78 86 -78q23 0 51.5 9.5t69.5 25.5l47 -119q-43 -25 -95 -40t-105 -15q-92 0 -148.5 54t-56.5 132z" />
<glyph unicode="&#x2dc;" horiz-adv-x="1021" d="M143 1249q47 96 106.5 146.5t131.5 50.5q39 0 77 -15.5t73.5 -34t67.5 -33.5t56 -15q33 0 63 21.5t64 72.5l119 -70q-49 -104 -105.5 -150t-123.5 -46q-39 0 -76 14t-72 30.5t-67.5 31t-61.5 14.5q-35 0 -63.5 -16.5t-69.5 -69.5z" />
<glyph unicode="&#x2dd;" horiz-adv-x="1161" d="M311 1167l156 379l201 -63l-228 -365zM614 1167l158 379l201 -63l-230 -365z" />
<glyph unicode="&#x3a9;" horiz-adv-x="1314" d="M98 0v207h168q-70 51 -105.5 133t-35.5 174v442q0 111 43 198t115.5 147.5t169 92t204.5 31.5q109 0 205 -31.5t169 -92t115 -147.5t42 -198v-442q0 -92 -36 -174t-103 -133h170v-207h-463v250q78 23 137 90.5t59 187.5v390q0 78 -24.5 133t-65.5 91t-94 52t-111 16 q-59 0 -112 -16t-94 -52t-66 -91.5t-25 -132.5v-390q0 -61 16.5 -107t44.5 -81t64.5 -57.5t75.5 -34.5v-248h-463z" />
<glyph unicode="&#x3c0;" d="M100 0v1014h863v-1014h-220v823h-426v-823h-217z" />
<glyph unicode="&#x401;" horiz-adv-x="1161" d="M125 0v1411h956v-211h-723v-387h619v-211h-619v-393h723v-209h-956zM297 1661q0 49 35 84t82 35q51 0 86 -35t35 -84t-35 -84t-86 -35q-47 0 -82 35t-35 84zM698 1661q0 49 35 84t84 35q51 0 85 -35t34 -84t-34 -84t-85 -35q-49 0 -84 35t-35 84z" />
<glyph unicode="&#x402;" horiz-adv-x="1486" d="M20 1198v213h1084v-213h-498v-326q88 49 183.5 77t181.5 28q221 0 325.5 -116t104.5 -314v-258q0 -111 -41 -199t-111.5 -147.5t-169 -91t-211.5 -31.5v209q61 0 115.5 16t94.5 52t62.5 90.5t22.5 131.5v185q0 141 -61.5 199.5t-183.5 58.5q-74 0 -159 -32t-153 -75v-655 h-235v1198h-351z" />
<glyph unicode="&#x403;" horiz-adv-x="1073" d="M129 0v1411h956v-211h-723v-1200h-233zM436 1612l344 266l123 -168l-389 -207z" />
<glyph unicode="&#x404;" horiz-adv-x="1101" d="M111 444v519q0 111 44 196.5t115.5 145t165.5 90t195 30.5q117 0 223.5 -32.5t187.5 -100.5l-114 -182q-59 51 -140 75.5t-153 24.5q-53 0 -104.5 -16t-92.5 -51t-66.5 -90.5t-25.5 -132.5v-97h471v-202h-471v-129q0 -78 25.5 -133.5t67.5 -90.5t93.5 -51t102.5 -16 q76 0 153.5 21.5t147.5 76.5l113 -180q-72 -59 -181.5 -96t-232.5 -37q-106 0 -201.5 29.5t-167 88t-113.5 144.5t-42 196z" />
<glyph unicode="&#x405;" horiz-adv-x="1181" d="M59 172l131 170q92 -68 195.5 -105.5t208.5 -37.5q139 0 207.5 56t68.5 142q0 59 -27.5 96t-74.5 62t-107.5 39t-125.5 31q-82 18 -159 46.5t-135.5 75t-94 113t-35.5 162.5q0 90 32.5 166t94 131t147.5 87t193 32q127 0 250.5 -26t236.5 -97l-104 -193q-94 57 -187.5 80 t-183.5 23q-49 0 -93 -12.5t-78 -37t-54.5 -62.5t-20.5 -89t26.5 -86t70.5 -58.5t100.5 -39t117.5 -27.5q100 -23 184.5 -53.5t145 -78.5t94 -116t33.5 -166t-39 -175t-107.5 -129t-164.5 -79.5t-209 -27.5q-150 0 -282 42t-255 142z" />
<glyph unicode="&#x406;" horiz-adv-x="561" d="M164 0v1411h233v-1411h-233z" />
<glyph unicode="&#x407;" horiz-adv-x="561" d="M-35 1661q0 49 35 84t82 35q51 0 86 -35t35 -84t-35 -84t-86 -35q-47 0 -82 35t-35 84zM164 0v1411h233v-1411h-233zM367 1661q0 49 34.5 84t83.5 35q51 0 86 -35t35 -84t-34.5 -84t-86.5 -35q-49 0 -83.5 35t-34.5 84z" />
<glyph unicode="&#x408;" horiz-adv-x="1079" d="M20 104l109 185q72 -49 138.5 -68.5t129.5 -19.5t116.5 16t92.5 51t60.5 92.5t21.5 141.5v909h236v-962q0 -111 -40 -197t-108.5 -145.5t-158 -90t-187.5 -30.5q-53 0 -109.5 7t-109.5 22.5t-102.5 38t-88.5 50.5z" />
<glyph unicode="&#x409;" horiz-adv-x="1908" d="M14 147q84 31 138.5 78t85 123t43 183.5t12.5 259.5v620h794v-561h359q98 0 177 -34t134 -92t84 -135t29 -163q0 -76 -23.5 -151.5t-75 -137t-129 -99.5t-188.5 -38h-602v1198h-332v-410q0 -184 -20.5 -325t-70.5 -242.5t-134 -165t-211 -94.5zM1087 211h326 q102 0 164.5 58.5t62.5 156.5q0 100 -64.5 156.5t-166.5 56.5h-322v-428z" />
<glyph unicode="&#x40a;" horiz-adv-x="1900" d="M115 0v1411h233v-571h481v571h236v-569h360q98 0 176 -33t133.5 -89t84 -132t28.5 -160q0 -76 -23.5 -152.5t-73.5 -138t-129 -99.5t-187 -38h-605v629h-481v-629h-233zM1065 211h326q102 0 164.5 59.5t62.5 157.5t-63.5 150.5t-168.5 52.5h-321v-420z" />
<glyph unicode="&#x40b;" horiz-adv-x="1486" d="M20 1198v213h1084v-213h-498v-321q78 43 174.5 71.5t182.5 28.5q123 0 206.5 -33t135 -92t74 -142t22.5 -184v-526h-238v475q0 145 -50 216t-187 71q-74 0 -163 -32t-157 -75v-655h-235v1198h-351z" />
<glyph unicode="&#x40c;" horiz-adv-x="1218" d="M119 0v1411h233v-588h183q37 0 72.5 7.5t68.5 28t60.5 58t47.5 99.5l127 395h232l-127 -412q-33 -104 -84 -173.5t-117 -92.5q88 -29 137 -101.5t80 -176.5l135 -455h-249l-119 416q-18 63 -45 103t-59.5 62.5t-70.5 29.5t-79 7h-193v-618h-233zM414 1612l344 266 l123 -168l-389 -207z" />
<glyph unicode="&#x40e;" horiz-adv-x="1114" d="M18 1411h244q6 -18 29.5 -80.5t54.5 -147.5t65.5 -180.5t65.5 -180.5t53.5 -149.5t30.5 -84.5h10q10 33 34 98.5t53.5 147t61.5 172t61.5 170t52 143t32.5 92.5h234l-428 -1130q-35 -90 -72 -147.5t-80 -91.5t-92 -46t-104 -12h-154v198h123q51 0 82 18.5t57 71.5l19 37 q-111 274 -217.5 550t-215.5 552zM268 1724h168q2 -20 11.5 -42.5t27 -42t42 -33t54.5 -13.5q35 0 60.5 13.5t43 33t26 42t8.5 42.5h165q-4 -43 -20 -92t-50 -92t-90.5 -71.5t-142.5 -28.5t-142 28.5t-92 71.5t-51.5 92t-17.5 92z" />
<glyph unicode="&#x40f;" horiz-adv-x="1292" d="M115 0v1411h233v-1200h592v1200h238v-1411h-410v-350h-250v350h-403z" />
<glyph unicode="&#x410;" horiz-adv-x="1263" d="M20 0l494 1411h238l493 -1411h-254l-96 305h-526l-101 -305h-248zM436 508h391l-84 264l-108 358h-8l-105 -344z" />
<glyph unicode="&#x411;" horiz-adv-x="1183" d="M115 0v1411h868v-213h-635v-348h357q102 0 182 -34t134 -92t83 -135t29 -161q0 -76 -25 -152.5t-76 -138t-130 -99.5t-189 -38h-598zM348 211h324q102 0 166.5 59.5t64.5 157.5t-66.5 154.5t-168.5 56.5h-320v-428z" />
<glyph unicode="&#x412;" horiz-adv-x="1245" d="M119 0v1411h610q100 0 177 -30.5t127 -83t76 -120t26 -143.5q0 -82 -41 -162.5t-133 -132.5q102 -51 149 -142t47 -181q0 -80 -25.5 -155t-76.5 -133t-127 -93t-174 -35h-635zM354 209h340q111 0 167.5 56.5t56.5 154.5t-67 155.5t-159 57.5h-338v-424zM354 838h332 q92 0 151.5 47t59.5 133q0 94 -58.5 138t-162.5 44h-322v-362z" />
<glyph unicode="&#x413;" horiz-adv-x="1073" d="M129 0v1411h956v-211h-723v-1200h-233z" />
<glyph unicode="&#x414;" horiz-adv-x="1454" d="M20 211h105q47 35 81 84t56.5 123t35.5 177t19 245l25 571h922q0 -303 1 -602t1 -600h118v-518h-219v309h-925v-309h-220v520zM403 207h627v993h-477l-18 -371q-6 -113 -12.5 -205t-21 -167.5t-37 -137t-61.5 -112.5z" />
<glyph unicode="&#x415;" horiz-adv-x="1161" d="M125 0v1411h956v-211h-723v-387h619v-211h-619v-393h723v-209h-956z" />
<glyph unicode="&#x416;" horiz-adv-x="1843" d="M45 0l135 453q31 104 81 178t138 102q-68 23 -119 90.5t-81 171.5l-129 416h235l125 -395q20 -63 48 -101t61.5 -58.5t70.5 -27t74 -6.5h121v588h233v-588h121q37 0 74 6.5t70.5 27t61.5 58t48 101.5l125 395h236l-129 -416q-31 -104 -82.5 -171.5t-118.5 -90.5 q88 -29 138 -102.5t81 -177.5l135 -453h-252l-119 416q-18 63 -44.5 103t-59.5 62.5t-69.5 29.5t-79.5 7h-136v-618h-233v618h-135q-43 0 -81 -7t-70 -29.5t-58.5 -62.5t-44.5 -103l-119 -416h-252z" />
<glyph unicode="&#x417;" horiz-adv-x="1095" d="M18 129l121 172q31 -25 72 -44t85 -33.5t89 -22.5t82 -8q141 0 220 63t79 170q0 104 -64.5 157.5t-175.5 53.5h-176v190h166q45 0 88 13.5t78 40t56.5 65.5t21.5 92q0 49 -20.5 83t-56.5 56.5t-83 33t-100 10.5q-37 0 -79 -7.5t-84 -21.5t-80 -33.5t-67 -44.5l-118 170 q86 66 195.5 102.5t256.5 36.5q92 0 176 -19.5t149.5 -64.5t104.5 -115.5t39 -172.5q0 -104 -52 -187.5t-148 -122.5q111 -39 158.5 -128t47.5 -189q0 -115 -43 -198t-114.5 -136t-166.5 -78.5t-200 -25.5q-135 0 -259 40t-198 103z" />
<glyph unicode="&#x418;" horiz-adv-x="1351" d="M121 0v1411h233v-1003h11l645 1003h219v-1411h-234v1008h-12q-41 -68 -83 -134.5t-85 -132.5q-14 -23 -51 -80t-85 -131.5t-102.5 -158.5t-103.5 -159t-86 -132t-51 -80h-215z" />
<glyph unicode="&#x419;" horiz-adv-x="1351" d="M121 0v1411h233v-1003h11l645 1003h219v-1411h-234v1008h-12q-41 -68 -83 -134.5t-85 -132.5q-14 -23 -51 -80t-85 -131.5t-102.5 -158.5t-103.5 -159t-86 -132t-51 -80h-215zM369 1753h168q2 -20 11 -42.5t26.5 -42t42 -33t55.5 -13.5q35 0 60.5 13.5t43 33t25.5 42 t8 42.5h166q-4 -43 -20.5 -92t-50.5 -92t-90 -72t-142 -29t-142.5 29t-92.5 72t-51 92t-17 92z" />
<glyph unicode="&#x41a;" horiz-adv-x="1218" d="M119 0v1411h233v-588h183q37 0 72.5 7.5t68.5 28t60.5 58t47.5 99.5l127 395h232l-127 -412q-33 -104 -84 -173.5t-117 -92.5q88 -29 137 -101.5t80 -176.5l135 -455h-249l-119 416q-18 63 -45 103t-59.5 62.5t-70.5 29.5t-79 7h-193v-618h-233z" />
<glyph unicode="&#x41b;" horiz-adv-x="1300" d="M-6 154q80 33 134 81t87 120.5t46 178t13 257.5v620h900v-1411h-240v1200h-428v-412q0 -188 -22.5 -329.5t-75 -242.5t-136.5 -163.5t-206 -93.5z" />
<glyph unicode="&#x41c;" horiz-adv-x="1562" d="M121 0v1411h219l268 -537l174 -362h13l172 367l262 532h215v-1411h-234v860h-8l-131 -266l-199 -391h-172l-192 368l-146 289h-8v-860h-233z" />
<glyph unicode="&#x41d;" horiz-adv-x="1292" d="M115 0v1411h233v-590h592v590h238v-1411h-238v610h-592v-610h-233z" />
<glyph unicode="&#x41e;" horiz-adv-x="1280" d="M109 457v501q0 111 42 197t113.5 146.5t167.5 92t207 31.5q109 0 206 -32.5t169.5 -93t114.5 -147.5t42 -198v-497q0 -111 -40.5 -199t-113.5 -148.5t-170 -92t-208 -31.5q-113 0 -210 31.5t-168 92t-111.5 148.5t-40.5 199zM344 492q0 -78 24.5 -133.5t65.5 -90.5 t94.5 -51t110.5 -16t111.5 16t95.5 51t65.5 90.5t24.5 133.5v428q0 76 -24.5 131t-65.5 91t-95.5 52t-111.5 16q-59 0 -112.5 -16t-93.5 -52t-64.5 -91.5t-24.5 -130.5v-428z" />
<glyph unicode="&#x41f;" horiz-adv-x="1292" d="M115 0v1411h1063v-1411h-238v1200h-592v-1200h-233z" />
<glyph unicode="&#x420;" horiz-adv-x="1157" d="M115 0v1411h608q102 0 178 -39t125 -100.5t73.5 -138t24.5 -152.5t-27.5 -152.5t-79.5 -139t-127 -101.5t-171 -39h-371v-549h-233zM348 762h324q102 0 162.5 60.5t60.5 158.5t-60.5 158.5t-162.5 60.5h-324v-438z" />
<glyph unicode="&#x421;" horiz-adv-x="1114" d="M115 444v523q0 111 44 195.5t116.5 143t167 89t194.5 30.5q117 0 224.5 -32.5t189.5 -100.5l-115 -182q-59 51 -139 75.5t-156 24.5q-53 0 -105.5 -16t-93.5 -51t-66.5 -90.5t-25.5 -132.5v-428q0 -78 25.5 -133.5t67.5 -90.5t93.5 -51t102.5 -16q76 0 153.5 21.5 t147.5 76.5l111 -180q-72 -59 -180.5 -96t-231.5 -37q-102 0 -196.5 29.5t-167 88t-116.5 144.5t-44 196z" />
<glyph unicode="&#x422;" horiz-adv-x="1073" d="M29 1198v213h1015v-213h-389v-1198h-235v1198h-391z" />
<glyph unicode="&#x423;" horiz-adv-x="1114" d="M18 1411h244q6 -18 29.5 -80.5t54.5 -147.5t65.5 -180.5t65.5 -180.5t53.5 -149.5t30.5 -84.5h10q10 33 34 98.5t53.5 147t61.5 172t61.5 170t52 143t32.5 92.5h234l-428 -1130q-35 -90 -72 -147.5t-80 -91.5t-92 -46t-104 -12h-154v198h123q51 0 82 18.5t57 71.5l19 37 q-111 274 -217.5 550t-215.5 552z" />
<glyph unicode="&#x424;" horiz-adv-x="1601" d="M121 641v199q0 106 42 199.5t116.5 162t178 110.5t226.5 46v67h236v-67q125 -4 229 -46t178 -110.5t115 -162t41 -199.5v-195q0 -111 -40 -205t-113 -164.5t-177 -112.5t-233 -46v-117h-236v117q-131 6 -235.5 47t-177 110.5t-111.5 162.5t-39 204zM352 655 q0 -76 25.5 -135t71 -101t105.5 -65.5t130 -25.5v817q-72 -2 -132 -25.5t-105.5 -66.5t-70 -102.5t-24.5 -133.5v-162zM920 328q72 2 132 25.5t105 65.5t69.5 101.5t24.5 134.5v162q0 74 -24.5 133.5t-67.5 102.5t-104.5 66.5t-134.5 25.5v-817z" />
<glyph unicode="&#x425;" horiz-adv-x="1171" d="M16 0l443 723l-416 688h268l275 -493l276 493h266l-413 -688l442 -723h-266l-305 528l-303 -528h-267z" />
<glyph unicode="&#x426;" horiz-adv-x="1335" d="M115 0v1411h233v-1202h592v1202h238v-1202h120v-520h-221v311h-962z" />
<glyph unicode="&#x427;" horiz-adv-x="1228" d="M57 979v434h236v-405q0 -152 74.5 -219.5t220.5 -67.5q80 0 157.5 29.5t135.5 66.5v596h235v-1411h-237v600q-70 -41 -154 -65.5t-172 -24.5q-240 0 -368 122t-128 345z" />
<glyph unicode="&#x428;" horiz-adv-x="1828" d="M117 0v1411h233v-1202h447v1202h231v-1202h451v1202h235v-1411h-1597z" />
<glyph unicode="&#x429;" horiz-adv-x="1865" d="M117 0v1411h233v-1202h447v1202h231v-1202h449v1202h237v-1202h119v-520h-219v311h-1497z" />
<glyph unicode="&#x42a;" horiz-adv-x="1538" d="M16 1202v209h670v-561h358q98 0 177 -34t134.5 -92t85 -135t29.5 -161q0 -76 -24.5 -152.5t-74.5 -138t-129 -99.5t-189 -38h-600v1202h-437zM686 211h326q102 0 165.5 59.5t63.5 157.5t-65.5 154.5t-167.5 56.5h-322v-428z" />
<glyph unicode="&#x42b;" horiz-adv-x="1646" d="M123 0v1411h233v-561h359q98 0 177 -34t134 -92t85 -135t30 -161q0 -76 -24.5 -152.5t-75 -138t-129 -99.5t-189.5 -38h-600zM356 211h326q102 0 165.5 59.5t63.5 157.5t-65.5 154.5t-167.5 56.5h-322v-428zM1288 0v1411h234v-1411h-234z" />
<glyph unicode="&#x42c;" horiz-adv-x="1191" d="M123 0v1411h233v-561h359q98 0 177 -34t134 -92t85 -135t30 -161q0 -76 -24.5 -152.5t-75 -138t-129 -99.5t-189.5 -38h-600zM356 211h326q102 0 165.5 59.5t63.5 157.5t-65.5 154.5t-167.5 56.5h-322v-428z" />
<glyph unicode="&#x42d;" horiz-adv-x="1101" d="M49 119l113 180q66 -57 146.5 -77.5t156.5 -20.5q57 0 109.5 16t92.5 51t62.5 90.5t22.5 133.5v143h-502v203h502v80q0 158 -76 225t-201 67q-74 0 -146.5 -24.5t-131.5 -71.5l-113 184q168 127 416 127q111 0 199.5 -27.5t153.5 -84t99.5 -142.5t34.5 -204v-521 q0 -111 -43 -196.5t-114.5 -144t-166 -89t-198.5 -30.5q-123 0 -233.5 36.5t-182.5 96.5z" />
<glyph unicode="&#x42e;" horiz-adv-x="1646" d="M127 0v1411h233v-590h179v137q0 111 35.5 197t102 146.5t158 92t201.5 31.5q109 0 200 -32.5t157.5 -93t103.5 -147.5t37 -198v-497q0 -111 -36 -199t-102.5 -148.5t-157.5 -92t-202 -31.5q-115 0 -206 31.5t-156.5 92t-100 148.5t-34.5 199v153h-179v-610h-233zM774 492 q0 -158 74 -224.5t188 -66.5q115 0 188.5 66.5t73.5 224.5v428q0 154 -72.5 222t-189.5 68t-189.5 -68.5t-72.5 -221.5v-428z" />
<glyph unicode="&#x42f;" horiz-adv-x="1251" d="M80 0l117 397q27 82 57.5 141.5t95.5 94.5q-123 37 -177 135t-54 217q0 84 26.5 161t78.5 136t130 94t183 35h602v-1411h-236v584h-223q-39 0 -75 -9.5t-66.5 -32t-56 -61.5t-44.5 -100l-108 -381h-250zM350 979q0 -102 63.5 -148.5t170.5 -46.5h319v416h-319 q-117 0 -175.5 -58.5t-58.5 -162.5z" />
<glyph unicode="&#x430;" horiz-adv-x="1044" d="M80 299q0 84 37 141.5t92 93t119.5 52t120.5 16.5h280v62q0 90 -51 128.5t-158 38.5q-51 0 -126 -15t-150 -77l-101 162q102 78 206 101.5t192 23.5q209 0 307 -92t98 -281v-653h-196l-19 88l-6 4q-109 -61 -183.5 -80.5t-138.5 -19.5q-152 0 -237.5 82t-85.5 225z M309 307q0 -57 41 -89t109 -32q37 0 73.5 9.5t72.5 22.5t68 29.5t56 31.5v155h-244q-29 0 -59.5 -4t-56 -17.5t-43 -38t-17.5 -67.5z" />
<glyph unicode="&#x431;" horiz-adv-x="1050" d="M92 371v268q0 94 6 173t23.5 146.5t46.5 126t72 113.5q33 41 77.5 73t96 57.5t106.5 48t107 42.5q27 10 49 19.5t44.5 18.5t47.5 19.5t55 24.5l74 -178q-49 -23 -83 -36t-59.5 -23.5t-47 -18.5t-48.5 -18q-74 -31 -131 -59.5t-99 -64.5t-67.5 -85t-35.5 -119l6 -8 q25 23 55.5 38t62 25.5t62.5 14.5t53 4q186 0 289.5 -96.5t103.5 -284.5v-221q0 -92 -35.5 -163t-95 -119t-138.5 -73.5t-167 -25.5q-199 0 -314.5 98t-115.5 283zM311 399q0 -57 17.5 -97t46 -64.5t68.5 -36t83 -11.5q41 0 80 11.5t69 36t48 64.5t18 97v162q0 115 -59 162 t-154 47q-37 0 -75.5 -12.5t-70.5 -39t-51.5 -67.5t-19.5 -98v-154z" />
<glyph unicode="&#x432;" horiz-adv-x="1017" d="M92 0v1014h510q80 0 139.5 -22.5t97.5 -60.5t57 -88t19 -106q0 -59 -33.5 -118.5t-93.5 -88.5q72 -33 109 -94t37 -131q0 -59 -20.5 -114.5t-61.5 -97.5t-102.5 -67.5t-143.5 -25.5h-514zM311 182h250q78 0 115 35t37 94q0 57 -41 90t-99 33h-262v-252zM311 616h260 q59 0 93 28t34 77q0 55 -40 80.5t-93 25.5h-254v-211z" />
<glyph unicode="&#x433;" horiz-adv-x="845" d="M96 0v1016h748v-189h-531v-827h-217z" />
<glyph unicode="&#x434;" horiz-adv-x="1179" d="M25 184h37.5t35.5 2q72 51 102.5 144.5t41.5 257.5l26 426h758v-826q23 0 45.5 -1t44.5 -1v-448h-198v262h-695v-262h-198v446zM362 188h449v639h-354l-13 -233q-8 -133 -23 -233.5t-59 -172.5z" />
<glyph unicode="&#x435;" horiz-adv-x="1013" d="M94 360v267q0 92 32 165.5t89 125t133 79t166 27.5q92 0 170 -26.5t134 -77t87 -122t31 -163.5v-199h-625v-51q0 -53 18.5 -91t48.5 -61.5t69.5 -35t82.5 -11.5q47 0 114 16.5t132 76.5q33 -39 64.5 -75t62.5 -75q-86 -84 -181 -111.5t-192 -27.5q-88 0 -166.5 22.5 t-139 68.5t-95.5 115.5t-35 163.5zM313 592h404v31q0 106 -59.5 154t-141.5 48t-142.5 -50t-60.5 -150v-33z" />
<glyph unicode="&#x436;" horiz-adv-x="1470" d="M33 0l106 330q25 76 57.5 128t106.5 72q-59 20 -94 68.5t-59 122.5l-99 295h230l88 -266q31 -90 78 -115t106 -25h72v406h217v-406h71q61 0 108.5 24.5t76.5 115.5l88 266h229l-98 -295q-25 -74 -59.5 -122t-94.5 -69q74 -20 107 -72t57 -128l107 -330h-238l-78 274 q-14 49 -32.5 78t-42 44.5t-52 19.5t-65.5 4h-84v-420h-217v420h-84q-35 0 -65 -4t-53.5 -19.5t-42 -44t-30.5 -78.5l-80 -274h-237z" />
<glyph unicode="&#x437;" horiz-adv-x="901" d="M35 113l117 149q53 -43 126.5 -65.5t127.5 -22.5q115 0 160.5 40t45.5 91q0 63 -46 95t-124 32h-143v170h143q74 0 116 34t42 87q0 59 -51 86t-117 27q-53 0 -118.5 -17.5t-118.5 -62.5l-117 149q74 66 175.5 93.5t201.5 27.5q166 0 263 -78t97 -209q0 -27 -6 -56.5 t-22.5 -58t-43 -54t-67.5 -44.5q43 -18 71.5 -44.5t46 -57.5t24.5 -61.5t7 -57.5q0 -147 -106.5 -231t-296.5 -84q-100 0 -203.5 28.5t-183.5 94.5z" />
<glyph unicode="&#x438;" horiz-adv-x="1073" d="M102 0v1014h220v-666h8l149 223l295 443h197v-1014h-219v668h-11l-161 -254l-283 -414h-195z" />
<glyph unicode="&#x439;" horiz-adv-x="1073" d="M102 0v1014h220v-666h8l149 223l295 443h197v-1014h-219v668h-11l-161 -254l-283 -414h-195zM219 1444h168q2 -20 11.5 -43t26.5 -42.5t42 -32.5t55 -13q35 0 60.5 13t43 32.5t25.5 42t8 43.5h166q-4 -43 -20.5 -92t-50 -92t-90 -72t-142.5 -29t-142 29t-92 72t-51.5 92 t-17.5 92z" />
<glyph unicode="&#x43a;" horiz-adv-x="1032" d="M102 0v1016h217v-406h130q61 0 110 24.5t82 115.5l92 266h230l-105 -295q-25 -74 -58.5 -122t-92.5 -69q72 -20 104.5 -72t56.5 -128l113 -330h-238l-84 274q-14 47 -33.5 76t-44 44.5t-54 20.5t-66.5 5h-142v-420h-217z" />
<glyph unicode="&#x43b;" horiz-adv-x="1067" d="M4 145q57 23 98 49.5t67 73.5t37 121t11 191v434h733v-1014h-217v827h-303v-249q0 -147 -23.5 -252t-69.5 -175.5t-113.5 -113.5t-155.5 -66z" />
<glyph unicode="&#x43c;" horiz-adv-x="1273" d="M104 0v1014h199l162 -305l162 -316h12l170 320l164 301h194v-1014h-217v555h-10l-235 -424h-148l-113 209l-110 209h-12v-549h-218z" />
<glyph unicode="&#x43d;" horiz-adv-x="1069" d="M104 0v1014h215v-406h429v406h219v-1014h-219v420h-429v-420h-215z" />
<glyph unicode="&#x43e;" horiz-adv-x="1048" d="M92 358v295q0 90 36 160t95.5 117t137 71.5t163.5 24.5q92 0 170 -24.5t136.5 -72.5t91 -118t32.5 -160v-293q0 -90 -35.5 -159.5t-96 -115.5t-138.5 -69.5t-162 -23.5q-86 0 -164.5 23.5t-137 69.5t-93.5 115.5t-35 159.5zM309 399q0 -115 63.5 -162t151.5 -47 q37 0 76 11.5t69.5 36t50 64.5t19.5 97v215q0 57 -19.5 97.5t-50 65t-69.5 35.5t-76 11t-75.5 -11t-69.5 -35.5t-50.5 -64.5t-19.5 -98v-215z" />
<glyph unicode="&#x43f;" d="M100 0v1014h863v-1014h-220v823h-426v-823h-217z" />
<glyph unicode="&#x440;" horiz-adv-x="1052" d="M102 -406v1420h197l20 -101q104 63 178 87t128 24q158 0 249 -89t91 -278v-305q0 -170 -93.5 -267t-263.5 -97q-53 0 -126.5 10t-162.5 51v-455h-217zM319 252q82 -35 140.5 -47t113.5 -12q35 0 67 8t55.5 29.5t36.5 56.5t13 86v266q0 102 -44 140t-111 38 q-27 0 -60.5 -8t-70.5 -22.5t-73 -33t-67 -38.5v-463z" />
<glyph unicode="&#x441;" horiz-adv-x="903" d="M94 352v301q0 90 35 160t92.5 117t131 71.5t151.5 24.5q45 0 92 -5t93 -18.5t90 -39t85 -68.5l-127 -162q-70 63 -124 77.5t-95 14.5q-35 0 -71.5 -11t-66.5 -35.5t-49.5 -64.5t-19.5 -98v-217q0 -57 17.5 -97t46 -64.5t65.5 -36t76 -11.5q43 0 104.5 19.5t110.5 66.5 l133 -149q-82 -84 -174 -110.5t-184 -26.5q-86 0 -162 24.5t-131 71.5t-87 113.5t-32 152.5z" />
<glyph unicode="&#x442;" horiz-adv-x="858" d="M18 827v189h824v-189h-301v-827h-222v827h-301z" />
<glyph unicode="&#x443;" horiz-adv-x="966" d="M20 1016h230l108 -416l101 -371h6l129 373l137 414h230l-519 -1426h-225l154 430l-74 60z" />
<glyph unicode="&#x444;" horiz-adv-x="1318" d="M90 414v180q0 88 33 165t93 135t145 93t190 37v385h217v-385q104 -2 189 -37t145.5 -93t92.5 -135t32 -165v-180q0 -88 -33 -165t-93.5 -134.5t-145.5 -91t-187 -33.5v-398h-217v398q-104 0 -189.5 33.5t-145.5 91t-93 134.5t-33 165zM307 440q0 -104 63.5 -177 t180.5 -75v633q-121 -2 -182.5 -73.5t-61.5 -176.5v-131zM768 188q117 2 179.5 75t62.5 177v131q0 104 -60.5 176t-181.5 74v-633z" />
<glyph unicode="&#x445;" horiz-adv-x="962" d="M2 0l358 518l-340 498h261l196 -330l201 330h260l-344 -494l358 -522h-262l-213 350l-217 -350h-258z" />
<glyph unicode="&#x446;" horiz-adv-x="1089" d="M113 0v1016h213v-826h413v826h213v-828l90 -2v-448h-198v262h-731z" />
<glyph unicode="&#x447;" horiz-adv-x="1013" d="M55 692v324h217v-297q0 -100 48.5 -141t125.5 -41q55 0 124 22.5t135 63.5v393h215v-1016h-215v428q-98 -53 -171 -69.5t-131 -16.5q-162 0 -255 88t-93 262z" />
<glyph unicode="&#x448;" horiz-adv-x="1501" d="M109 0v1014h219v-821h311v821h215v-821h315v821h217v-1014h-1277z" />
<glyph unicode="&#x449;" horiz-adv-x="1513" d="M104 0v1014h218v-824h313v824h213v-824h315v824h217v-828h90v-450h-198v264h-1168z" />
<glyph unicode="&#x44a;" horiz-adv-x="1214" d="M16 829v185h553v-381h252q174 0 266.5 -87t92.5 -227q0 -66 -21.5 -124t-65.5 -101t-112 -68.5t-158 -25.5h-471v829h-336zM567 184h240q78 0 119 36t41 99q0 49 -37 90.5t-123 41.5h-240v-267z" />
<glyph unicode="&#x44b;" horiz-adv-x="1345" d="M102 0v1016h215v-383h254q174 0 266.5 -87t92.5 -227q0 -66 -21.5 -124t-66.5 -101t-111.5 -68.5t-157.5 -25.5h-471zM317 184h240q78 0 119 36t41 99q0 49 -37 90.5t-123 41.5h-240v-267zM1026 0v1014h213v-1014h-213z" />
<glyph unicode="&#x44c;" horiz-adv-x="954" d="M104 0v1016h215v-383h252q176 0 268.5 -87t92.5 -227q0 -66 -22.5 -124t-66.5 -101t-111.5 -68.5t-158.5 -25.5h-469zM317 184h242q78 0 119 36t41 99q0 49 -37 90.5t-123 41.5h-242v-267z" />
<glyph unicode="&#x44d;" horiz-adv-x="899" d="M33 121l123 160q35 -33 65.5 -50.5t58 -26.5t52 -11.5t45.5 -2.5q39 0 77 11.5t68.5 36t49 62.5t18.5 93v45h-354v168h354v17q-4 111 -55.5 155.5t-135.5 44.5q-43 0 -105.5 -16t-111.5 -64l-123 156q39 37 85 61.5t93.5 39t94.5 20.5t88 6q186 0 286.5 -96t100.5 -268 v-300q0 -90 -33 -158.5t-89 -116.5t-131 -72.5t-161 -24.5q-92 0 -186 22.5t-174 108.5z" />
<glyph unicode="&#x44e;" horiz-adv-x="1357" d="M98 0v1014h215v-410h133v51q0 88 33 157t89.5 116t131 72.5t158.5 25.5q88 0 164 -24.5t131 -72.5t86 -117t31 -155v-301q0 -88 -32 -155.5t-87 -114.5t-131 -71.5t-162 -24.5q-90 0 -165 24.5t-130 71.5t-86 115.5t-31 156.5v60h-133v-418h-215zM662 393q0 -113 56 -160 t142 -47q37 0 72 11.5t62.5 36t44 64.5t16.5 95v211q0 121 -56.5 172t-138.5 51q-39 0 -74.5 -12t-63.5 -38.5t-44 -68.5t-16 -104v-211z" />
<glyph unicode="&#x44f;" horiz-adv-x="1011" d="M61 0l74 283q16 57 43 102t80 64q-88 29 -127 100.5t-39 148.5q0 61 21.5 118.5t63.5 102t104.5 70t142.5 25.5h491v-1014h-217v401h-166q-66 0 -113.5 -27.5t-70.5 -117.5l-61 -256h-226zM305 698q0 -63 41 -89.5t109 -26.5h243v245h-247q-59 0 -102.5 -31.5 t-43.5 -97.5z" />
<glyph unicode="&#x451;" horiz-adv-x="1013" d="M94 360v267q0 92 32 165.5t89 125t133 79t166 27.5q92 0 170 -26.5t134 -77t87 -122t31 -163.5v-199h-625v-51q0 -53 18.5 -91t48.5 -61.5t69.5 -35t82.5 -11.5q47 0 114 16.5t132 76.5q33 -39 64.5 -75t62.5 -75q-86 -84 -181 -111.5t-192 -27.5q-88 0 -166.5 22.5 t-139 68.5t-95.5 115.5t-35 163.5zM203 1309q0 49 34.5 83.5t81.5 34.5q51 0 86 -34.5t35 -83.5t-34.5 -84t-86.5 -35q-47 0 -81.5 35t-34.5 84zM313 592h404v31q0 106 -59.5 154t-141.5 48t-142.5 -50t-60.5 -150v-33zM604 1309q0 49 35 83.5t84 34.5q51 0 86 -34.5 t35 -83.5t-35 -84t-86 -35q-49 0 -84 35t-35 84z" />
<glyph unicode="&#x452;" horiz-adv-x="1056" d="M8 1161v158h96v147h220v-147h411v-158h-411v-250q115 76 192.5 95.5t130.5 19.5q168 0 246 -97.5t78 -266.5v-455q0 -98 -35 -170t-93.5 -118t-137 -68.5t-166.5 -22.5v195q45 0 84 10t67.5 32.5t46 61.5t17.5 96l-2 410q0 102 -46.5 143t-111.5 41q-55 0 -124 -26.5 t-146 -75.5v-715h-220v1161h-96z" />
<glyph unicode="&#x453;" horiz-adv-x="845" d="M96 0v1016h748v-189h-531v-827h-217zM346 1167l156 379l200 -63l-227 -365z" />
<glyph unicode="&#x454;" horiz-adv-x="903" d="M94 352v301q0 90 35 160t92.5 117t131 71.5t151.5 24.5q45 0 92 -5t93 -18.5t90 -39t85 -68.5l-127 -162q-70 63 -124 77.5t-95 14.5q-35 0 -71.5 -11t-66.5 -35.5t-49.5 -64.5t-19.5 -98v-16h324v-174h-324v-27q0 -57 17.5 -97t46 -64.5t65.5 -36t76 -11.5 q43 0 104.5 19.5t110.5 66.5l133 -149q-82 -84 -174 -110.5t-184 -26.5q-86 0 -162 24.5t-131 71.5t-87 113.5t-32 152.5z" />
<glyph unicode="&#x455;" horiz-adv-x="942" d="M45 129l119 158q76 -63 153.5 -87t163.5 -24q72 0 128.5 31t56.5 94q0 53 -37 79t-109 38q-74 12 -149.5 27.5t-137 46t-100.5 83t-39 138.5q0 74 31 132t83 98t119.5 61.5t143.5 21.5q117 0 210 -23.5t183 -89.5l-106 -161q-74 47 -143.5 64.5t-141.5 17.5 q-78 0 -122 -35t-44 -82t43 -68.5t107.5 -35t140.5 -28t140.5 -45t107.5 -87t43 -152.5q0 -74 -32 -132t-88 -98t-132 -61.5t-162 -21.5q-111 0 -215 26.5t-215 114.5z" />
<glyph unicode="&#x456;" horiz-adv-x="520" d="M135 1305q0 53 36 89t87 36q53 0 89 -36t36 -89t-36 -89t-89 -36q-51 0 -87 36t-36 89zM152 0v1014h217v-1014h-217z" />
<glyph unicode="&#x457;" horiz-adv-x="520" d="M-53 1294q0 49 34.5 84t81.5 35q51 0 86 -35t35 -84t-34.5 -83.5t-86.5 -34.5q-47 0 -81.5 34.5t-34.5 83.5zM152 0v1014h217v-1014h-217zM348 1294q0 49 35 84t84 35q51 0 86 -35t35 -84t-35 -83.5t-86 -34.5q-49 0 -84 34.5t-35 83.5z" />
<glyph unicode="&#x458;" horiz-adv-x="526" d="M-31 -223h74q76 0 101.5 34.5t25.5 114.5v1088h217v-1120q0 -160 -84 -235t-225 -75h-109v193zM156 1307q0 51 34.5 87t88.5 36q53 0 88.5 -36t35.5 -87q0 -53 -35.5 -89t-88.5 -36t-88 36t-35 89z" />
<glyph unicode="&#x459;" horiz-adv-x="1536" d="M18 143q59 20 101.5 51t68 80.5t38 119t12.5 171.5v451h645v-383h252q176 0 268 -87t92 -227q0 -66 -22.5 -124t-66.5 -101t-111.5 -68.5t-157.5 -25.5h-469v827h-224v-254q0 -137 -21.5 -238.5t-66.5 -174t-113.5 -117.5t-162.5 -68zM881 184h241q78 0 119 36t41 99 q0 49 -37 90.5t-123 41.5h-241v-267z" />
<glyph unicode="&#x45a;" horiz-adv-x="1542" d="M117 0v1016h217v-387h344v387h215v-383h252q176 0 268 -87t92 -227q0 -66 -22.5 -124t-66.5 -101t-111.5 -68.5t-157.5 -25.5h-469v446h-344v-446h-217zM893 184h240q78 0 118.5 36t40.5 99q0 49 -36.5 90.5t-122.5 41.5h-240v-267z" />
<glyph unicode="&#x45b;" horiz-adv-x="1056" d="M8 1161v158h96v147h220v-147h411v-158h-411v-250q115 76 192.5 95.5t130.5 19.5q168 0 246 -97.5t78 -266.5v-662h-219v633q0 102 -46.5 143t-111.5 41q-55 0 -124 -26.5t-146 -75.5v-715h-220v1161h-96z" />
<glyph unicode="&#x45c;" horiz-adv-x="1032" d="M102 0v1016h217v-406h130q61 0 110 24.5t82 115.5l92 266h230l-105 -295q-25 -74 -58.5 -122t-92.5 -69q72 -20 104.5 -72t56.5 -128l113 -330h-238l-84 274q-14 47 -33.5 76t-44 44.5t-54 20.5t-66.5 5h-142v-420h-217zM371 1167l155 379l201 -63l-227 -365z" />
<glyph unicode="&#x45e;" horiz-adv-x="966" d="M20 1016h230l108 -416l101 -371h6l129 373l137 414h230l-519 -1426h-225l154 430l-74 60zM188 1444h168q2 -20 11.5 -43t27 -42.5t42 -32.5t55.5 -13q35 0 60.5 13t42.5 32.5t25.5 42t8.5 43.5h166q-4 -43 -20.5 -92t-50.5 -92t-90 -72t-142 -29t-142.5 29t-92.5 72 t-51.5 92t-17.5 92z" />
<glyph unicode="&#x45f;" d="M100 0v1014h215v-830h428v830h218v-1014h-324v-301h-213v301h-324z" />
<glyph unicode="&#x490;" horiz-adv-x="1101" d="M129 0v1411h733v254h217v-465h-717v-1200h-233z" />
<glyph unicode="&#x491;" horiz-adv-x="862" d="M96 0v1016h555v221h203v-410h-541v-827h-217z" />
<glyph unicode="&#x4d9;" horiz-adv-x="1024" d="M90 379v199h627v51q0 106 -57.5 152t-149.5 46q-47 0 -117.5 -17t-136.5 -75l-119 152q92 86 188.5 112.5t196.5 26.5q88 0 163 -23.5t130 -69.5t87 -115.5t32 -164.5v-266q0 -92 -32 -166t-89 -125t-134 -77.5t-167 -26.5q-92 0 -170 26.5t-133 75.5t-87 121t-32 164z M309 391q0 -106 59.5 -154.5t143.5 -48.5q86 0 144.5 53.5t58.5 161.5v19h-406v-31z" />
<glyph unicode="&#x2000;" horiz-adv-x="946" />
<glyph unicode="&#x2001;" horiz-adv-x="1892" />
<glyph unicode="&#x2002;" horiz-adv-x="946" />
<glyph unicode="&#x2003;" horiz-adv-x="1892" />
<glyph unicode="&#x2004;" horiz-adv-x="630" />
<glyph unicode="&#x2005;" horiz-adv-x="473" />
<glyph unicode="&#x2006;" horiz-adv-x="315" />
<glyph unicode="&#x2007;" horiz-adv-x="315" />
<glyph unicode="&#x2008;" horiz-adv-x="236" />
<glyph unicode="&#x2009;" horiz-adv-x="378" />
<glyph unicode="&#x200a;" horiz-adv-x="105" />
<glyph unicode="&#x2010;" horiz-adv-x="835" d="M102 444v193h629v-193h-629z" />
<glyph unicode="&#x2011;" horiz-adv-x="835" d="M102 444v193h629v-193h-629z" />
<glyph unicode="&#x2012;" horiz-adv-x="835" d="M102 444v193h629v-193h-629z" />
<glyph unicode="&#x2013;" horiz-adv-x="1040" d="M41 463v190h958v-190h-958z" />
<glyph unicode="&#x2014;" horiz-adv-x="2082" d="M41 463v190h2001v-190h-2001z" />
<glyph unicode="&#x2018;" horiz-adv-x="610" d="M152 1141q0 59 18 115.5t50 105.5t76 88t95 63l76 -100q-49 -37 -81 -83t-36 -101q45 -6 75 -44t30 -91q0 -55 -41 -97.5t-103 -42.5q-41 0 -70.5 15.5t-50 42t-29.5 60.5t-9 69z" />
<glyph unicode="&#x2019;" horiz-adv-x="610" d="M152 1057q49 37 80.5 83t35.5 101q-45 6 -74.5 44t-29.5 91q0 55 41 97.5t102 42.5q41 0 71 -15.5t50.5 -42t29.5 -59.5t9 -70q0 -59 -18.5 -115.5t-51 -105.5t-75.5 -88t-95 -64z" />
<glyph unicode="&#x201a;" horiz-adv-x="555" d="M125 -195q49 37 81 83t36 102q-51 6 -78 41t-27 94q0 55 41 96t103 41q41 0 70.5 -15.5t50 -41t29.5 -59t9 -68.5q0 -59 -18.5 -115.5t-51 -106t-75.5 -89t-94 -64.5z" />
<glyph unicode="&#x201c;" horiz-adv-x="909" d="M123 1141q0 59 18.5 115.5t51 105.5t76.5 88t93 63l76 -100q-49 -37 -79.5 -83t-36.5 -101q47 -6 75.5 -44t28.5 -91q0 -55 -41 -97.5t-102 -42.5q-41 0 -71 15.5t-50.5 42t-29.5 60.5t-9 69zM475 1141q0 59 18.5 115.5t51.5 105.5t77 88t93 63l76 -100q-49 -37 -80 -83 t-37 -101q47 -6 75.5 -44t28.5 -91q0 -55 -41 -97.5t-102 -42.5q-41 0 -70.5 15.5t-50 42t-30 60.5t-9.5 69z" />
<glyph unicode="&#x201d;" horiz-adv-x="909" d="M125 1057q49 37 81 83t36 101q-45 6 -75 44t-30 91q0 55 41 97.5t103 42.5q41 0 70.5 -15.5t50 -42t29.5 -59.5t9 -70q0 -59 -18.5 -115.5t-51 -105.5t-75.5 -88t-94 -64zM477 1057q49 37 81 83t36 101q-45 6 -75 44t-30 91q0 55 41 97.5t103 42.5q41 0 70.5 -15.5 t50 -42t30 -59.5t9.5 -70q0 -59 -18.5 -115.5t-51.5 -105.5t-76 -88t-94 -64z" />
<glyph unicode="&#x201e;" horiz-adv-x="968" d="M125 -195q49 37 81 83t36 102q-51 6 -78 41t-27 94q0 55 41 96t103 41q41 0 70.5 -15.5t50 -41t29.5 -59t9 -68.5q0 -59 -18.5 -115.5t-51 -106t-75.5 -89t-94 -64.5zM539 -195q49 37 80.5 83t35.5 102q-51 6 -77.5 41t-26.5 94q0 55 41 96t102 41q41 0 71 -15.5 t50.5 -41t29.5 -59t9 -68.5q0 -59 -18.5 -115.5t-51 -106t-75.5 -89t-95 -64.5z" />
<glyph unicode="&#x2020;" horiz-adv-x="985" d="M45 776v170h344v479h205v-479h346v-170h-346v-1145h-205v1145h-344z" />
<glyph unicode="&#x2021;" horiz-adv-x="985" d="M45 250v168h344v358h-344v170h344v479h205v-479h346v-170h-346v-358h346v-168h-346v-619h-205v619h-344z" />
<glyph unicode="&#x2022;" horiz-adv-x="882" d="M166 573q0 59 22.5 111.5t61.5 91.5t91 61.5t112 22.5q59 0 112 -22.5t92 -61.5t61.5 -91t22.5 -112q0 -59 -22.5 -111t-61.5 -91t-92 -61.5t-112 -22.5t-111.5 22.5t-91.5 61.5t-61.5 91t-22.5 111z" />
<glyph unicode="&#x2026;" horiz-adv-x="1718" d="M137 133q0 53 38 95t99 42q66 0 105 -42t39 -95q0 -59 -38 -102t-104 -43t-102.5 42t-36.5 103zM719 133q0 53 38 95t99 42q66 0 105.5 -42t39.5 -95q0 -59 -37.5 -102t-105.5 -43q-63 0 -101 42t-38 103zM1294 133q0 53 38 95t100 42q66 0 105.5 -42t39.5 -95 q0 -59 -37.5 -102t-105.5 -43q-63 0 -101.5 42t-38.5 103z" />
<glyph unicode="&#x202f;" horiz-adv-x="378" />
<glyph unicode="&#x2030;" horiz-adv-x="2381" d="M102 793v387q0 57 25 101t67 74.5t95 47t108 16.5t107.5 -16.5t94.5 -47t66.5 -74.5t24.5 -101v-387q0 -57 -24.5 -101.5t-65.5 -75t-94 -46t-109 -15.5q-57 0 -110.5 15.5t-94 46t-65.5 74.5t-25 102zM274 813q0 -29 11.5 -49.5t30 -32.5t40 -18t41.5 -6t43 6t41.5 18 t29.5 32.5t11 49.5v342q0 31 -11 51.5t-29.5 33.5t-41 19.5t-43.5 6.5q-20 0 -41.5 -6.5t-40 -19.5t-30 -33.5t-11.5 -51.5v-342zM334 -35l870 1495h162l-872 -1495h-160zM999 229v387q0 57 26 101.5t67 75t94 47t108 16.5t107.5 -16.5t94.5 -47t66.5 -74.5t24.5 -102v-387 q0 -57 -24.5 -101t-65.5 -74.5t-94 -46t-109 -15.5q-57 0 -110.5 15.5t-94 46t-65.5 74.5t-25 101zM1171 250q0 -29 11.5 -49.5t30 -32.5t40 -18.5t41.5 -6.5t43 6.5t41.5 18.5t29.5 32.5t11 49.5v342q0 31 -11 51.5t-29.5 33.5t-41 19t-43.5 6q-20 0 -41.5 -6t-40 -19 t-30 -33.5t-11.5 -51.5v-342zM1690 229v387q0 57 24.5 101.5t66.5 75t94 47t107 16.5t108.5 -16.5t95.5 -47t66.5 -74.5t24.5 -102v-387q0 -57 -24.5 -101t-66.5 -74.5t-95 -46t-109 -15.5q-57 0 -110 15.5t-93 46t-64.5 74.5t-24.5 101zM1862 250q0 -29 11 -49.5 t28.5 -32.5t39 -18.5t41.5 -6.5t43 6.5t41.5 18.5t30.5 32.5t12 49.5v342q0 31 -12 51.5t-30.5 33.5t-41 19t-43.5 6q-41 0 -80.5 -25.5t-39.5 -84.5v-342z" />
<glyph unicode="&#x2039;" horiz-adv-x="684" d="M94 469l273 401h202l-266 -401l266 -399h-202z" />
<glyph unicode="&#x203a;" horiz-adv-x="684" d="M92 70l266 399l-266 401h203l272 -401l-272 -399h-203z" />
<glyph unicode="&#x2044;" horiz-adv-x="327" d="M-352 -35l870 1495h162l-873 -1495h-159z" />
<glyph unicode="&#x205f;" horiz-adv-x="473" />
<glyph unicode="&#x20ac;" d="M68 524v142h811v-142h-484v-71q0 -68 24.5 -116t65.5 -78t92.5 -44t104.5 -14q66 0 135.5 16t132.5 57q29 -47 53.5 -92t53.5 -92q-72 -47 -169 -75.5t-206 -28.5q-111 0 -206 30.5t-165.5 90t-110.5 145.5t-40 197v75h-92zM68 754v141h92v63q0 111 42 197t113.5 145.5 t165.5 91t199 31.5q104 0 197.5 -23.5t171.5 -74.5l-111 -186q-57 35 -123.5 52t-130.5 17q-53 0 -105.5 -14t-93.5 -44t-65.5 -78t-24.5 -116v-61h484v-141h-811z" />
<glyph unicode="&#x2122;" horiz-adv-x="1808" d="M76 1274v145h649v-145h-248v-703h-151v703h-250zM813 571v850h141l179 -321l112 -221h6l115 223l170 319h141v-850h-151v521h-6l-88 -162l-127 -236h-115l-125 219l-94 179h-6v-521h-152z" />
<glyph unicode="&#x2202;" horiz-adv-x="1085" d="M74 451q0 109 32.5 195.5t91 147t136.5 93.5t168 33q72 0 140.5 -24t145.5 -81q-6 102 -33.5 192.5t-74.5 158t-113.5 106.5t-150.5 39q-33 0 -71 -3t-87 -20l-2 166q96 23 176 23q158 0 267.5 -61.5t178 -166t99.5 -242t31 -288.5q0 -184 -37 -322.5t-103.5 -230.5 t-157.5 -139t-200 -47q-92 0 -172 30.5t-138.5 90t-92 147.5t-33.5 203zM283 455q0 -80 19.5 -136.5t51 -92.5t73.5 -53t89 -17q74 0 124 41t83 105.5t49 144t21 157.5q-74 82 -148 116t-131 34q-53 0 -96 -27t-73 -69t-46 -95t-16 -108z" />
<glyph unicode="&#x220f;" horiz-adv-x="1282" d="M115 -207v1618h1063v-1618h-238v1407h-592v-1407h-233z" />
<glyph unicode="&#x2211;" horiz-adv-x="1044" d="M61 -6l322 627l-320 596v194h902v-211h-621l311 -579l-323 -621h651v-207h-922v201z" />
<glyph unicode="&#x221a;" horiz-adv-x="1185" d="M37 760l319 102l262 -696l332 1462h199l-430 -1792h-172l-316 823l-141 -45z" />
<glyph unicode="&#x221e;" horiz-adv-x="1513" d="M86 561q0 66 26.5 125t71.5 103.5t105.5 71t130.5 26.5q51 0 101 -18.5t95.5 -49.5t82 -67.5t63.5 -73.5q35 45 72.5 84t80.5 66.5t93.5 43t109.5 15.5q68 0 126.5 -24.5t101.5 -67.5t66.5 -102.5t23.5 -131.5q0 -66 -26 -125t-71 -104t-106.5 -72t-130.5 -27 q-53 0 -100.5 18.5t-90.5 48.5t-79.5 66.5t-69.5 75.5q-35 -41 -73 -78.5t-81 -66.5t-93 -46.5t-112 -17.5q-68 0 -125 25t-100 68t-67.5 103t-24.5 132zM252 561q0 -72 49 -121t115 -49q72 0 134 50.5t105 117.5q-18 29 -43.5 58.5t-56.5 54t-64.5 40t-70.5 15.5 q-33 0 -62.5 -13.5t-53 -36t-38 -53t-14.5 -63.5zM864 561q27 -33 55.5 -63.5t57.5 -54t60.5 -38t68.5 -14.5q31 0 60.5 14.5t52 37t36 53t13.5 65.5q0 72 -47.5 119t-110.5 47q-72 0 -131 -47t-115 -119z" />
<glyph unicode="&#x222b;" horiz-adv-x="647" d="M-82 -270l45 139q25 -14 54.5 -19.5t43.5 -5.5q25 0 43.5 9.5t36 34t31.5 66.5t29 109q8 43 14 104.5t10 159t5 236.5t1 336q0 358 83.5 522t267.5 164q31 0 72.5 -9t74.5 -26l-43 -141q-27 14 -55.5 19.5t-48.5 5.5q-31 0 -56.5 -13.5t-45 -50.5t-33 -99.5t-19.5 -160.5 q0 -12 -2 -66.5t-3 -129t-2 -161.5t-2 -164t-2 -136.5t-1 -77.5q-6 -178 -26.5 -307t-62.5 -212t-107.5 -123t-158.5 -40q-31 0 -69.5 10t-73.5 27z" />
<glyph unicode="&#x2248;" horiz-adv-x="1071" d="M39 387q53 92 126 141.5t173 49.5q47 0 97 -21.5t100.5 -46.5t98.5 -46.5t91 -21.5q41 0 76 28t86 105l139 -102q-59 -104 -131 -157.5t-168 -53.5q-47 0 -96 20.5t-99.5 46t-100.5 46t-97 20.5q-51 0 -85 -25.5t-77 -84.5zM39 739q53 92 126 141.5t173 49.5 q47 0 97 -21.5t100.5 -46t98.5 -46t91 -21.5q41 0 76 27.5t86 103.5l139 -101q-59 -104 -131 -157.5t-168 -53.5q-47 0 -96 20.5t-99.5 45.5t-100.5 45t-97 20q-51 0 -85 -24.5t-77 -83.5z" />
<glyph unicode="&#x2260;" d="M51 313v166h291l178 252h-469v168h582l182 256h180l-182 -256h191v-168h-306l-176 -252h482v-166h-598l-162 -233h-178l161 233h-176z" />
<glyph unicode="&#x2264;" horiz-adv-x="1112" d="M78 592v149l950 344v-184l-696 -233h2l694 -224v-186q-240 86 -475.5 168t-474.5 166zM80 4v166h950v-166h-950z" />
<glyph unicode="&#x2265;" horiz-adv-x="1112" d="M80 0v166h950v-166h-950zM80 256v186q176 57 349 109.5t347 114.5l-696 231v186q240 -86 475.5 -172t474.5 -172v-149z" />
<glyph unicode="&#x25ca;" horiz-adv-x="1085" d="M96 649q18 37 47 92.5t62 120t69.5 133t69.5 133t61.5 120t47.5 91.5h155l353 -690l-355 -688h-153zM305 651q20 -39 51 -100.5t64 -126t63.5 -125.5t48.5 -100q20 41 50 101t62 123.5t60.5 124t49.5 101.5l-226 455q-20 -41 -49.5 -101.5t-61.5 -125t-61.5 -125 t-50.5 -101.5z" />
<glyph unicode="&#x25fc;" horiz-adv-x="1013" d="M0 0v1014h1014v-1014h-1014z" />
</font>
</defs>
</svg>
